<?xml version="1.0" encoding="utf-8"?>
<!-- Generator: Adobe Illustrator 17.1.0, SVG Export Plug-In . SVG Version: 6.00 Build 0)  -->
<!DOCTYPE svg PUBLIC "-//W3C//DTD SVG 1.1//EN" "http://www.w3.org/Graphics/SVG/1.1/DTD/svg11.dtd">
<svg version="1.1" id="Layer_1" xmlns="http://www.w3.org/2000/svg" xmlns:xlink="http://www.w3.org/1999/xlink" x="0px" y="0px"
	 viewBox="0 0 40 40" enable-background="new 0 0 40 40" xml:space="preserve">
<path fill="#777" d="M9.8,3.3C9.8,3.3,10,3.3,9.8,3.3c-0.4,0.5-8.9,10.5-1,18.3c4,4,7.3,0.2,7.3,0.2c3.1-4,0-10.2,0-10.2
	c-0.8-2-3.7-3.2-3.7-3.2l2.3-2.6c2,0.8,3.5,3.1,3.5,3.1c0.1-2.4-1.8-5-1.8-5L19.9,0l3.6,4c-1.7,2.3-1.8,5-1.8,5
	c1.1-1.9,3.5-3.2,3.5-3.2l2.3,2.6c-2.2,0.7-3.7,3.2-3.7,3.2c-1.3,2.3-2.2,7.2,0,10.3c2.6,3.6,7.1-0.2,7.1-0.2
	c8.3-7.4-0.8-18.1-0.8-18.1c-0.5-0.4,0.1-0.2,0.1-0.2c4,2.9,9.2,6.8,9.4,16.5C39.7,31.6,31.5,40,20,40c-11.2,0-20-9.4-19.6-20.5
	C0.6,13.1,3.9,7.2,9.8,3.3z"/>
</svg>
