<?xml version="1.0" encoding="utf-8"?>
<!-- Generator: Adobe Illustrator 17.1.0, SVG Export Plug-In . SVG Version: 6.00 Build 0)  -->
<!DOCTYPE svg PUBLIC "-//W3C//DTD SVG 1.1//EN" "http://www.w3.org/Graphics/SVG/1.1/DTD/svg11.dtd">
<svg version="1.1" id="Layer_1" xmlns="http://www.w3.org/2000/svg" xmlns:xlink="http://www.w3.org/1999/xlink" x="0px" y="0px"
	 viewBox="0 0 40 40" enable-background="new 0 0 40 40" xml:space="preserve">
<path fill="#777" d="M20,31.4c-1.1,0-2.2-0.1-3.2-0.2c-2.9,2.6-6.4,4.4-10.3,5.4C5.7,36.9,4.8,37,4,37.1c-0.5,0-1-0.3-1.1-0.8
	c0,0,0,0,0,0c-0.1-0.6,0.3-0.9,0.6-1.3c1.4-1.6,3-2.9,4.1-6.7C2.9,25.7,0,21.7,0,17.1C0,9.3,9,2.9,20,2.9s20,6.4,20,14.3
	S31,31.4,20,31.4z"/>
</svg>
