<?xml version="1.0" encoding="utf-8"?>
<!-- Generator: Adobe Illustrator 17.1.0, SVG Export Plug-In . SVG Version: 6.00 Build 0)  -->
<!DOCTYPE svg PUBLIC "-//W3C//DTD SVG 1.1//EN" "http://www.w3.org/Graphics/SVG/1.1/DTD/svg11.dtd">
<svg version="1.1" id="Layer_1" xmlns="http://www.w3.org/2000/svg" xmlns:xlink="http://www.w3.org/1999/xlink" x="0px" y="0px"
	 viewBox="0 0 40 40" enable-background="new 0 0 40 40" xml:space="preserve">
<path fill="#3C4447" d="M40,30c0,0.9-0.5,1.7-1.3,2.1l-8.2,4.1c-0.3,0.2-0.7,0.3-1,0.3s-0.7-0.1-1-0.3l-8.2-4.1
	c-0.1,0-0.1,0-0.1-0.1c0,0-0.1,0.1-0.1,0.1l-8.2,4.1c-0.3,0.2-0.7,0.3-1,0.3c-0.4,0-0.7-0.1-1-0.3l-8.2-4.1C0.5,31.7,0,30.9,0,30
	v-7.6c0-0.9,0.6-1.8,1.4-2.2l8-3.4V9.4c0-0.9,0.6-1.8,1.4-2.2l8.2-3.5c0.3-0.1,0.6-0.2,0.9-0.2s0.6,0.1,0.9,0.2l8.2,3.5
	c0.9,0.4,1.4,1.2,1.4,2.2v7.4l8,3.4c0.9,0.4,1.4,1.2,1.4,2.2V30z M18,22l-7.4-3.2L3.2,22l7.4,3.2L18,22z M18.8,30v-5.8l-7.1,3v6.3
	L18.8,30z M28.1,9.4L20,5.9l-8.1,3.5l8.1,3.5L28.1,9.4z M28.2,16.8v-4.9l-7.1,3v4.9L28.2,16.8z M36.8,22l-7.4-3.2L22,22l7.4,3.2
	L36.8,22z M37.6,30v-5.8l-7.1,3v6.3L37.6,30z"/>
</svg>
