<?xml version="1.0" encoding="utf-8"?>
<!-- Generator: Adobe Illustrator 17.1.0, SVG Export Plug-In . SVG Version: 6.00 Build 0)  -->
<!DOCTYPE svg PUBLIC "-//W3C//DTD SVG 1.1//EN" "http://www.w3.org/Graphics/SVG/1.1/DTD/svg11.dtd">
<svg version="1.1" id="Layer_1" xmlns="http://www.w3.org/2000/svg" xmlns:xlink="http://www.w3.org/1999/xlink" x="0px" y="0px"
	 viewBox="0 0 40 40" enable-background="new 0 0 40 40" xml:space="preserve">
<path fill="#3C4447" d="M38.6,29.7c0,3-2.5,5.5-5.5,5.5H5.5c-3,0-5.5-2.5-5.5-5.5H38.6z M31.7,21.4h-1.4v0.7c0,2.7-2.2,4.8-4.8,4.8
	H10.3c-2.7,0-4.8-2.2-4.8-4.8V6.2c0-0.8,0.6-1.4,1.4-1.4h24.8c4.6,0,8.3,3.7,8.3,8.3S36.3,21.4,31.7,21.4z M31.7,9h-1.4v8.3h1.4
	c2.3,0,4.1-1.9,4.1-4.1S34,9,31.7,9z"/>
</svg>
