<?xml version="1.0" encoding="utf-8"?>
<!-- Generator: Adobe Illustrator 17.1.0, SVG Export Plug-In . SVG Version: 6.00 Build 0)  -->
<!DOCTYPE svg PUBLIC "-//W3C//DTD SVG 1.1//EN" "http://www.w3.org/Graphics/SVG/1.1/DTD/svg11.dtd">
<svg version="1.1" id="Layer_1" xmlns="http://www.w3.org/2000/svg" xmlns:xlink="http://www.w3.org/1999/xlink" x="0px" y="0px"
	 viewBox="0 0 40 40" enable-background="new 0 0 40 40" xml:space="preserve">
<g>
	<path fill="#77777" d="M40,33.4c0,3.7-3,6.6-6.6,6.6H14.2c-3.7,0-6.6-3-6.6-6.6V14.2c0-3.7,3-6.6,6.6-6.6h19.1
		c3.7,0,6.6,3,6.6,6.6V33.4z M14.2,10.5c-2,0-3.7,1.7-3.7,3.7v19.1c0,2,1.7,3.7,3.7,3.7h19.1c2,0,3.7-1.7,3.7-3.7V14.2
		c0-2-1.7-3.7-3.7-3.7H14.2z"/>
	<path fill="#77777" d="M32.4,25.8c0,3.7-3,6.6-6.6,6.6H6.6c-3.7,0-6.6-3-6.6-6.6V6.6C0,3,3,0,6.6,0h19.1c3.7,0,6.6,3,6.6,6.6V25.8
		z M6.6,2.9c-2,0-3.7,1.7-3.7,3.7v19.1c0,2,1.7,3.7,3.7,3.7h19.1c2,0,3.7-1.7,3.7-3.7V6.6c0-2-1.7-3.7-3.7-3.7H6.6z"/>
</g>
</svg>
