<svg xmlns="http://www.w3.org/2000/svg" viewBox="0 0 40 40"><path fill="#777" d="M40 30c0 .9-.5 1.7-1.3 2.1l-8.2 4.1c-.3.2-.7.3-1 .3s-.7-.1-1-.3l-8.2-4.1c-.1 0-.1 0-.1-.1l-.1.1-8.2 4.1c-.3.2-.7.3-1 .3-.4 0-.7-.1-1-.3l-8.2-4.1C.5 31.7 0 30.9 0 30v-7.6c0-.9.6-1.8 1.4-2.2l8-3.4V9.4c0-.9.6-1.8 1.4-2.2L19 3.7c.3-.1.6-.2.9-.2s.6.1.9.2L29 7.2c.9.4 1.4 1.2 1.4 2.2v7.4l8 3.4c.9.4 1.4 1.2 1.4 2.2V30zm-22-8l-7.4-3.2L3.2 22l7.4 3.2L18 22zm.8 8v-5.8l-7.1 3v6.3l7.1-3.5zm9.3-20.6L20 5.9l-8.1 3.5 8.1 3.5 8.1-3.5zm.1 7.4v-4.9l-7.1 3v4.9l7.1-3zm8.6 5.2l-7.4-3.2L22 22l7.4 3.2 7.4-3.2zm.8 8v-5.8l-7.1 3v6.3l7.1-3.5z"/></svg>