<svg xmlns="http://www.w3.org/2000/svg" viewBox="0 0 40 40"><path fill="#3C4447" d="M40 20c0 11-9 20-20 20S0 31 0 20 9 0 20 0s20 9 20 20zm-13.5-5.9c.1 0 .3-.5.3-.6.2-.2.4-.3.6-.4.4-.2.9-.2 1.4-.3.4-.1 1-.1 1.3.3-.1-.1.5-.6.6-.7.2-.1.6-.1.8-.3.1-.1.1-.6.1-.6-.4.1-.6-.4-.6-.7l-.2.2c0-.4-.5-.1-.7-.2-.6-.2-.5-.6-.7-1-.1-.2-.4-.3-.5-.5-.1-.2-.2-.5-.4-.5s-.4.5-.5.5c-.2-.1-.3.1-.5.2s-.3.1-.4.1c.5-.2-.2-.4-.4-.4.4-.1.2-.5 0-.7h.1c-.1-.2-.8-.4-1-.6-.2-.2-1.5-.4-1.7-.3-.3.2.1.7.1 1 0 .3-.3.4-.3.7 0 .4.8.4.6 1-.1.4-.6.4-.8.7-.2.3 0 .7.2.9.2.2-.4.4-.4.5-.4.2-.8-.4-.9-.8-.1-.3-.1-.6-.4-.8-.2-.1-.7-.1-.8 0-.2-.4-.7-.5-1.1-.7-.5-.2-1-.2-1.5-.1.2 0-.1-.8-.5-.7.1-.3.1-.5.1-.8l.3-.6c.1-.1.6-.7.4-.7.4.1.9.1 1.3-.3.3-.3.4-.7.6-.9.3-.4.8.1 1.1.1.5 0 .5-.5.2-.8.3 0 .1-.6-.1-.7-.2-.1-1.1.2-.7.3-.1-.1-.7 1.2-1.1.6-.1-.1-.2-.7-.4-.7s-.3.2-.4.4c.1-.3-.7-.6-.9-.6.4-.3.1-.5-.2-.7-.2-.1-.9-.2-1 0-.5.6.5.7.8.8.1.1.4.2.2.4-.2.1-.6.2-.7.3-.2.2.2.5-.1.7-.2-.2-.2-.6-.4-.9.2.3-.9.1-.9.1-.4 0-1 .3-1.3-.1-.1-.1-.1-.7.1-.6l-.5-.5c-.9.3-1.7.7-2.4 1.1h.3l.6-.3c.3-.1.8-.4 1.1-.2 0-.1.1-.1.1-.1.2.2.4.4.5.7-.2-.1-.5-.1-.8 0-.2.1-.5.1-.6.3.1.1.2.3.1.5-.3-.2-.6-.6-1.1-.7h-.6c-2.5 1.4-4.6 3.4-6.1 5.8.1.1.2.2.3.2.3.1 0 .8.5.4.2.1.2.3.1.5l1.1.7c.2.2.5.3.5.5.2.3.1.5-.1.5 0-.1-.4-.4-.5-.3-.1.1 0 .8.3.8-.4 0-.2 1.6-.3 2h.1c-.1.3.2 1.5.7 1.4-.4.1.5 1.3.7 1.3.3.2.7.4 1 .7.3.4.3.9.6 1.2-.1.3.5.7.5 1.1-.1 0-.1 0-.1.1.1.4.6.4.8.7.1.2 0 .7.3.6.1-.6-.3-1.1-.6-1.6-.2-.3-.3-.5-.4-.8-.1-.2-.2-.5-.3-.8.1 0 .7.2.6.3-.2.5.8 1.4 1.1 1.8.1.1.7.9.4.9.3 0 .8.5 1 .8.2.4.2.9.3 1.3.2.5.9.8 1.3 1 .4.2.7.4 1 .6.5.2.7 0 1.1-.1.7-.1.8.7 1.3.9.3.2 1.1.4 1.4.3-.2.1.5 1.1.6 1.2.2.3.7.5.9.8.1-.1.2-.1.2-.2-.1.3.4.8.7.8.3-.1.4-.6.4-.8-.5.3-1 .1-1.3-.5-.1-.1-.5-.9-.1-.9.5 0 .2-.4.1-.8s-.4-.6-.6-.9c-.2.3-.7.2-.8 0 0 .1-.1.2-.1.3h-.4c.1-.3.1-.7.2-1 .1-.5 1-1.4-.1-1.3-.4 0-.5.2-.7.5-.1.3-.1.6-.4.8-.2.1-1 .1-1.2-.1-.5-.3-.8-1.2-.8-1.7 0-.7.3-1.3 0-2 .2-.1.3-.4.5-.5.2-.1.3.1.4-.2l-.2-.2c.4.2 1.1-.3 1.5 0 .2.2.4.2.6-.1 0-.1-.2-.4-.1-.6.1.4.4.5.8.2.2.2.6.1.9.3.3.2.3.5.7.1.2.3.2.3.3.6.1.3.2 1 .5 1.1.5.3.4-.6.4-.9 0 0 0-.9-.1-.9-.8-.2-.5-.8-.1-1.3.1-.1.7-.3.9-.5.2-.2.5-.6.4-.9.1 0 .2-.1.3-.2-.1 0-.4-.3-.4-.3.2-.1.2-.3.1-.4.3-.2.1-.4.4-.5.3.4.9-.1.6-.4.3-.4.9-.2 1-.5.4.1.1-.4.3-.7.2-.2.5-.2.7-.4 0 0 .7-.4.4-.4.4.1 1.3-.4.7-.8.1-.2-.2-.3-.5-.4.2-.1.4.1.6-.1.3-.2.1-.3-.2-.4-.4-.1-.8.1-1.1.3-.5.3-.6.6-.9.7zM32 31.5c-.2-.2-.4-.1-.7-.2-.2-.1-.4-.2-.6-.2.1-.5-.5-.7-.9-1-.3-.3-.5-.5-1-.4-.1 0-.6.2-.5.3-.3-.3-.5-.4-.9-.6-.4-.1-.7-.7-1.1-.2-.2.2-.1.5-.2.7-.3-.3.3-.6.1-.9-.3-.4-.9.2-1.1.4-.2.1-.3.2-.4.3l-.3.6c-.1-.2-.5-.2-.5-.3.1.6.1 1.3.2 1.9.1.4 0 1-.3 1.2-.3.3-.7.6-.8 1-.1.3 0 .6.3.7 0 .4-.4.7-.4 1.1 0 0 0 .3.1.4 3.5-.5 6.6-2.3 9-4.8z"/></svg>