<svg xmlns="http://www.w3.org/2000/svg" viewBox="0 0 40 40"><g fill="#3C4447"><path d="M40 33.4c0 3.7-3 6.6-6.6 6.6H14.2c-3.7 0-6.6-3-6.6-6.6V14.2c0-3.7 3-6.6 6.6-6.6h19.1c3.7 0 6.6 3 6.6 6.6v19.2zM14.2 10.5c-2 0-3.7 1.7-3.7 3.7v19.1c0 2 1.7 3.7 3.7 3.7h19.1c2 0 3.7-1.7 3.7-3.7V14.2c0-2-1.7-3.7-3.7-3.7H14.2z"/><path d="M32.4 25.8c0 3.7-3 6.6-6.6 6.6H6.6c-3.7 0-6.6-3-6.6-6.6V6.6C0 3 3 0 6.6 0h19.1c3.7 0 6.6 3 6.6 6.6v19.2zM6.6 2.9c-2 0-3.7 1.7-3.7 3.7v19.1c0 2 1.7 3.7 3.7 3.7h19.1c2 0 3.7-1.7 3.7-3.7V6.6c0-2-1.7-3.7-3.7-3.7H6.6z"/></g></svg>