<svg xmlns="http://www.w3.org/2000/svg" viewBox="0 0 104 67"><path fill="#FFF" d="M.704.314l2.43.59L2.78 2.36.35 1.773zM96.5 49.6l-.9-4.5c0-.2-.1-.3-.1-.5l1.5-.3c0 .2.1.3.1.5l.9 4.5-1.5.3zm-3-10.5c-.7-1.4-1.6-2.8-2.6-4.2l1.2-.9c1.1 1.5 2 3 2.8 4.4l-1.4.7zm-6.6-8.9c-1.2-1.2-2.4-2.3-3.7-3.4l1-1.2c1.4 1.1 2.6 2.3 3.8 3.5l-1.1 1.1zm-8.6-6.9c-1.4-.9-2.9-1.7-4.4-2.5l.7-1.3c1.5.8 3 1.6 4.5 2.6l-.8 1.2zm-9.9-4.9c-1.2-.4-2.5-.8-3.7-1.1l-1.2-.3.4-1.5 1.1.3c1.3.3 2.6.7 3.9 1.1l-.5 1.5zm-10.9-2.8l-5-1.2.4-1.5 5 1.2-.4 1.5zm-10.9-2.7l-5-1.2.4-1.5 5 1.2-.4 1.5zm-10.9-2.6l-5-1.2.3-1.5 5 1.2-.3 1.5zm-11-2.7l-5-1.2.4-1.4 5 1.2-.4 1.4zM13.8 5l-5-1.2.4-1.5 5 1.2-.4 1.5zM99.188 55.366l.49 2.45-1.47.296-.49-2.45z"/><path fill="#FFF" d="M92.7 54.9l5.9 1.2 5-3.4-2.9 14"/></svg>