<svg xmlns="http://www.w3.org/2000/svg" viewBox="0 0 175 57"><path fill="#FFF" d="M1.337.274l1.555 1.958-1.175.933L.163 1.207zM161.5 45.5l-.2-.2c-1-.9-2.2-1.8-3.6-2.6l.8-1.3c1.5.9 2.8 1.9 3.8 2.8l.2.2-1 1.1zm-9-5.5c-1.4-.6-3-1.2-4.6-1.7l.5-1.4c1.6.6 3.2 1.2 4.7 1.8l-.6 1.3zm-10.2-3.4c-1.6-.4-3.2-.8-4.8-1.1l.3-1.5c1.6.3 3.3.7 4.9 1.1l-.4 1.5zM55 35c-1.4 0-2.8-.1-4.2-.2l.1-1.5c1.6.1 3.2.2 4.8.2l.1 1.5H55zm6.8-.1v-1.5l4.9-.1v1.5l-4.9.1zm10.8-.2v-1.5l4.9-.1v1.5l-4.9.1zm59.1-.1c-1.6-.2-3.3-.4-4.9-.5l.1-1.5c1.6.1 3.3.3 5 .5l-.2 1.5zm-48.2 0v-1.5l4.9-.1v1.5l-4.9.1zm10.9-.2v-1.5l4.9-.1v1.5l-4.9.1zm10.8-.2v-1.5l4.9-.1v1.5l-4.9.1zm-60.3-.1c-1.6-.3-3.3-.7-4.9-1.1l.4-1.5c1.6.4 3.2.8 4.8 1.1l-.3 1.5zm71.2-.1v-1.5l4.9-.1v1.5l-4.9.1zm-81.8-2.8c-1.6-.6-3.1-1.2-4.6-1.8l.6-1.4 4.5 1.8-.5 1.4zm-10-4.5c-1.5-.8-3-1.7-4.3-2.7l.9-1.2c1.3.9 2.6 1.8 4.1 2.6l-.7 1.3zm-8.9-6.6c-.6-.6-1.2-1.3-1.7-1.9l-1.5-1.9 1.2-.9 1.5 1.9c.5.6 1 1.2 1.6 1.8l-1.1 1zm-6.9-8.4L5.4 7.8l1.2-.9 3.1 3.9-1.2.9zM166.834 48.41l1.837 1.695-1.016 1.102-1.838-1.696zM161.4 51.9l5.5-2.5 2-5.7 5.9 13"/></svg>