<svg xmlns="http://www.w3.org/2000/svg" viewBox="0 0 168 73"><path fill="#FFF" d="M166.672.455l1.074 1.047L166 3.292l-1.073-1.048zM11.9 59.4l-1.2-.9 3.2-4 1.2.9-3.2 4zm7.1-8.5l-1-1.1c1.2-1.1 2.6-2.2 4.1-3.2l.8 1.2c-1.4 1.1-2.7 2.1-3.9 3.1zm77.9-.6c-1.2 0-2.5 0-3.7-.1l.1-1.5c1.6.1 3.3.2 5 .1v1.5h-1.4zm7.6-.6l-.2-1.5c1.6-.2 3.3-.6 4.9-.9l.3 1.5c-1.6.4-3.3.7-5 .9zm-17.4-.5l-4.9-1.3.4-1.5 4.9 1.3-.4 1.5zm28.4-2.2l-.5-1.4c1.6-.5 3.2-1.2 4.7-1.8l.6 1.4c-1.5.6-3.1 1.3-4.8 1.8zm-39.3-.6l-4.9-1.3.4-1.5 4.9 1.3-.4 1.5zm-48-1.4l-.6-1.4c1.5-.7 3.1-1.3 4.8-1.9l.5 1.4c-1.7.6-3.2 1.2-4.7 1.9zm37.2-1.4l-4.9-1.3.4-1.5 4.9 1.3-.4 1.5zm60.4-1.3L125 41c1.5-.9 2.9-1.8 4.1-2.8l.9 1.2c-1.2 1-2.7 2-4.2 2.9zm-87.1-.7l-.3-1.5c1.7-.3 3.4-.6 5.1-.8l.2 1.5c-1.7.2-3.4.5-5 .8zm15.9-.5c-1.6-.2-3.3-.4-5-.4v-1.5c1.8.1 3.5.2 5.2.5l-.2 1.4zm80.1-5.8l-1.1-1 3.6-3.6 1.1 1-3.6 3.6zm7.8-8l-1.1-1 3.6-3.6 1.1 1-3.6 3.6zm7.9-8l-1.1-1 3.6-3.6 1.1 1-3.6 3.6zm7.8-8l-1.1-1 3.6-3.6 1.1 1-3.6 3.6zM6.838 63.188l1.168.94-1.568 1.948-1.168-.94z"/><path fill="#FFF" d="M4.2 58.8L7 64.2l5.9 1.6L.3 72.6"/></svg>