<svg width="64" height="30" viewBox="0 0 64 30" xmlns="http://www.w3.org/2000/svg"><title>FG Logo 4</title><g fill="#585858" fill-rule="evenodd"><path d="M17.703 8.267c-1.717-.72-3.706-.777-5.56 0l2.78 6.798L8.21 12.25c-.71 1.738-.767 3.753 0 5.63.768 1.877 2.215 3.26 3.933 3.983 1.717.72 3.708.777 5.56 0 1.853-.78 3.22-2.243 3.932-3.983.71-1.74.768-3.753 0-5.63-.767-1.877-2.214-3.26-3.932-3.983M52.838 8.267c-1.717-.72-3.706-.777-5.56 0l2.78 6.798-6.712-2.815c-.71 1.738-.768 3.753 0 5.63.77 1.877 2.214 3.26 3.932 3.983 1.718.72 3.706.777 5.56 0 1.853-.78 3.22-2.243 3.932-3.983.71-1.74.768-3.753 0-5.63-.767-1.877-2.214-3.26-3.932-3.983"/><path d="M50.058.913c-4.213 0-7.995 1.9-10.56 4.897-.297.348-.734.538-1.187.538h-1.925c-.544-1.65-2.083-2.846-3.895-2.846-1.81 0-3.35 1.195-3.894 2.846H26.67c-.455 0-.892-.194-1.19-.542C22.806 2.684 18.81.75 14.38.923 7.31 1.195 1.474 6.91.982 14.056c-.57 8.257 5.905 15.16 13.94 15.16 7.707 0 13.976-6.346 13.976-14.15v.397c0-2.008 1.607-3.638 3.59-3.638 1.984 0 3.59 1.63 3.59 3.638v-.398c0 8.14 6.82 14.695 14.976 14.117 6.886-.487 12.463-6.134 12.942-13.106.57-8.26-5.903-15.163-13.94-15.163zM14.923 26.39c-6.166 0-11.182-5.08-11.182-11.325C3.74 8.82 8.758 3.74 14.924 3.74c6.166 0 11.182 5.08 11.182 11.325 0 6.245-5.016 11.324-11.182 11.324zM32.49 8.99c-.723 0-1.313-.597-1.313-1.33 0-.734.59-1.33 1.313-1.33.724 0 1.314.596 1.314 1.33 0 .733-.59 1.33-1.314 1.33zM50.058 26.39c-6.165 0-11.182-5.08-11.182-11.325 0-6.245 5.017-11.324 11.182-11.324 6.166 0 11.18 5.08 11.18 11.325 0 6.245-5.014 11.324-11.18 11.324z"/></g></svg>