<svg width="36" height="40" viewBox="0 0 36 40" xmlns="http://www.w3.org/2000/svg" xmlns:xlink="http://www.w3.org/1999/xlink"><title>Imported Layers Copy 4 + Imported Layers Copy 3 Copy Copy</title><defs><ellipse id="a" cx="17.946" cy="18.074" rx="17.946" ry="18.074"/><path id="c" d="M3.002 24.04v-1.908l-.695-.164C1.025 21.668.13 20.53.13 19.205V3.19c0-1.327.895-2.464 2.177-2.765L2.96.272 3.19.36l.108.012c.45.056.883.22 1.253.48l.09.06 6.044 2.31c.824.315 1.69.475 2.572.475.882 0 1.748-.16 2.572-.475L21.884.91l.09-.063c.366-.253.795-.417 1.24-.473L23.32.36l.23-.088.656.152c1.285.3 2.183 1.437 2.183 2.765v16.015c0 1.33-.9 2.465-2.184 2.765l-.696.162v1.91H3.002z"/><path id="d" d="M.032 13.615l-.024-4.37c0-3.733 2.016-7.19 5.26-9.016.04-.023.065-.027.09-.027.363 0 1.1.67 1.64 1.16.938.854 2 1.82 3.264 1.82 1.3 0 2.426-.885 3.42-1.666.647-.508 1.38-1.085 1.814-1.085.074 0 .135.02.206.063 3.014 1.904 4.814 5.178 4.814 8.756v4.365H.032"/><path id="f" d="M.032 13.615l-.024-4.37c0-3.733 2.016-7.19 5.26-9.016.04-.023.065-.027.09-.027.363 0 1.1.67 1.64 1.16.938.854 2 1.82 3.264 1.82 1.3 0 2.426-.885 3.42-1.666.647-.508 1.38-1.085 1.814-1.085.074 0 .135.02.206.063 3.014 1.904 4.814 5.178 4.814 8.756v4.365H.032"/></defs><g fill="none" fill-rule="evenodd"><g transform="translate(0 3.124)"><mask id="b" fill="#fff"><use xlink:href="#a"/></mask><use fill="#70910D" xlink:href="#a"/><g mask="url(#b)"><path d="M8.774 32.927c-.918 0-1.664-.752-1.664-1.676V19.767l-.47.01h-.033c-1.037 0-1.886-.855-1.886-1.906 0-1.052.85-1.907 1.895-1.907l.037.002.458.01v-3.39c0-.926.746-1.677 1.664-1.677h18.078c.918 0 1.664.75 1.664 1.676v3.378h.448c1.04.003 1.89.86 1.89 1.908s-.85 1.904-1.89 1.907h-.448v11.474c0 .925-.746 1.677-1.664 1.677H8.774" fill="#FCDE98"/><path d="M26.852 11.36c.67 0 1.215.55 1.215 1.224v3.83h.896c.794.003 1.44.656 1.44 1.456 0 .8-.646 1.452-1.44 1.455l-.896.002V31.25c0 .676-.545 1.225-1.215 1.225H8.774c-.67 0-1.215-.55-1.215-1.224V19.305l-.917.02h-.05c-.786-.01-1.423-.66-1.423-1.454 0-.796.637-1.444 1.424-1.455l.05.002.915.018v-3.85c0-.676.544-1.225 1.214-1.225h18.078m0-.905H8.774c-1.167 0-2.113.953-2.113 2.13v2.928l-.046-.003c-1.293 0-2.342 1.057-2.342 2.36s1.05 2.36 2.342 2.36l.047-.003V31.25c0 1.177.947 2.13 2.114 2.13h18.078c1.167 0 2.113-.953 2.113-2.13V20.23c1.29-.004 2.337-1.06 2.337-2.36 0-1.3-1.046-2.356-2.337-2.36v-2.926c0-1.176-.946-2.13-2.113-2.13" fill="#A1855B"/><path d="M7.104 51.583V49.58l-.347-.08c-1.488-.35-2.526-1.667-2.526-3.204V30.28c0-1.538 1.04-2.855 2.527-3.205l.347-.08v-.272l.744.284.054.007c.52.064 1.024.256 1.454.555l.045.03 5.994 2.29c.774.295 1.586.445 2.413.445.827 0 1.64-.15 2.413-.446l6.005-2.294.045-.03c.425-.296.923-.485 1.44-.55l.053-.008.747-.285v.27l.348.08c1.49.348 2.53 1.666 2.53 3.206v16.016c0 1.54-1.04 2.858-2.53 3.205l-.348.082v2H7.104" fill="#CAA670"/><path d="M28.102 27.362l.655.153c1.285.3 2.183 1.436 2.183 2.765v16.016c0 1.328-.898 2.465-2.183 2.764l-.696.162v1.91H7.554v-1.91l-.694-.163c-1.284-.302-2.18-1.438-2.18-2.764V30.28c0-1.327.896-2.463 2.18-2.764l.652-.153.126.048.1.04.11.013c.45.055.882.22 1.252.478l.09.064.102.04 5.943 2.268c.825.315 1.69.475 2.572.475.882 0 1.748-.16 2.572-.475l5.954-2.274.1-.04.09-.06c.366-.254.796-.418 1.24-.474l.108-.013.1-.038.13-.05m.857-1.294l-1.306.498c-.603.076-1.16.296-1.64.626l-5.953 2.275c-.725.277-1.49.415-2.253.415-.764 0-1.528-.138-2.254-.415l-5.942-2.27c-.48-.335-1.044-.557-1.654-.632l-1.3-.497v.567c-1.647.386-2.874 1.87-2.874 3.645v16.016c0 1.775 1.227 3.258 2.873 3.644v2.096H28.96v-2.094c1.648-.384 2.878-1.87 2.878-3.646V30.28c0-1.778-1.23-3.263-2.88-3.647v-.565" fill="#A1855B"/><path d="M21.02 27.82l-1.158.39c-.626.213-1.29.426-1.936.426-.266 0-.53-.036-.788-.123l-1.158-.09h-.17c-.397 0-.594.02-.335.386l.587.826c.57.164 1.158.246 1.745.246.764 0 1.528-.138 2.254-.415l1.37-.524.096-.134c.294-.415 0-.99-.506-.99" fill="#E8CB8B"/><path d="M20.49 30.27l-.11.042c-.825.315-1.69.475-2.573.475-.328 0-.654-.022-.976-.066l.722 1.017v17.72l.948 1.066.973-1.065V31.703l1.016-1.433" fill="#BE9C6A"/><path d="M21.43 28.943l-1.37.524c-.725.277-1.49.415-2.253.415-.587 0-1.175-.082-1.745-.246l.77 1.085c.32.045.647.067.975.067.882 0 1.748-.16 2.572-.475l.11-.042.94-1.327" fill="#9B8058"/><path d="M21.09 28.68l-2.73 3.85c-.268.378-.826.378-1.095 0l-2.73-3.85c-.32-.448 0-1.072.547-1.072l1.255.424c.958.324 1.994.324 2.952 0l1.253-.424c.548 0 .867.624.548 1.073" fill="#343433"/><path d="M6.907 26.91c-.23-.084-.36-.322-.315-.56l.48-1.328 8.046 2.982-.886 2.164-7.325-3.257" fill="#A1855B"/><path d="M7.43 25.797l6.897 2.556-.414 1.014-6.698-2.98.214-.59m-.715-1.55l-.7 1.932c-.133.544.162 1.103.685 1.297l7.852 3.493 1.357-3.316-9.195-3.407M20.605 27.986l7.997-2.964.48 1.327c.046.238-.086.476-.315.56l-7.153 3.07-1.01-1.994" fill="#A1855B"/><path d="M28.245 25.797l.214.59-6.567 2.818-.45-.888 6.802-2.52m.714-1.55l-9.195 3.407 1.57 3.103 7.64-3.28c.522-.194.817-.753.683-1.298l-.7-1.933" fill="#A1855B"/><path d="M18.773 49.245L17.8 50.31l-.948-1.065V30.907h1.92v18.338" fill="#343433"/><path d="M23.89 17.45c0 .494-.398.894-.888.894s-.887-.4-.887-.893c0-.492.397-.892.887-.892s.887.4.887.893M14.01 17.45c0 .494-.398.894-.888.894s-.887-.4-.887-.893c0-.492.397-.892.887-.892s.887.4.887.893" fill="#1A1918"/><path d="M23.363 40.264c-.083 0-.165-.015-.242-.045L20.47 39.2c-.083-.032-.138-.113-.138-.202v-3.996c0-.12.096-.217.214-.217h5.634c.12 0 .215.097.215.217V39c0 .09-.055.17-.138.202l-2.65 1.017c-.078.03-.16.044-.244.044" fill="#CAA670"/><path d="M26.096 35.09v3.85l-2.597.997c-.044.017-.09.025-.136.025-.047 0-.093-.008-.137-.025l-2.596-.996v-3.85h5.466m.084-.604h-5.634c-.283 0-.514.232-.514.518V39c0 .215.132.407.332.484l2.65 1.017c.113.044.23.065.35.065.118 0 .236-.02.35-.064l2.65-1.016c.2-.077.33-.27.33-.484v-3.996c0-.286-.23-.518-.514-.518" fill="#A1855B"/><path d="M12.156 40.264c-.083 0-.165-.015-.242-.045L9.262 39.2c-.082-.032-.138-.113-.138-.202v-3.996c0-.12.097-.217.215-.217h5.633c.118 0 .214.097.214.217V39c0 .09-.055.17-.137.202L12.4 40.22c-.08.03-.16.044-.244.044" fill="#CAA670"/><path d="M14.888 35.09v3.85l-2.596.997c-.043.017-.09.025-.136.025-.047 0-.092-.008-.136-.025l-2.596-.996v-3.85h5.464m.085-.604H9.34c-.285 0-.515.232-.515.518V39c0 .215.132.407.33.484l2.652 1.017c.112.044.23.065.35.065.117 0 .236-.02.348-.064l2.65-1.016c.2-.077.332-.27.332-.484v-3.996c0-.286-.23-.518-.514-.518" fill="#A1855B"/><path d="M17.822 27.224c-5.116 0-10.553-1.42-10.553-4.05V11.877h.457v7.872c0 .483.187.938.526 1.28.34.34.79.53 1.27.53l16.59-.002c.992 0 1.798-.81 1.798-1.81v-7.87h.46v9.68h.005v1.62c0 2.63-5.437 4.048-10.553 4.048" fill="#804526"/><path d="M27.77 21.488v.67h.006v1.017c0 1.9-4.465 3.446-9.954 3.446-5.49 0-9.954-1.545-9.954-3.445V21.49c.43.415 1.014.67 1.655.67h16.59c.643 0 1.227-.257 1.657-.672m1.198-10.215h-1.656v8.474c0 .666-.536 1.206-1.198 1.206H9.524c-.662 0-1.198-.54-1.198-1.205v-8.475H6.67v11.902c0 3.1 5.576 4.652 11.152 4.652s11.152-1.55 11.152-4.652v-2.22h-.006v-9.682" fill="#804526"/><path d="M20.342 22.854c.187 1.294-.704 2.496-1.988 2.684-1.285.188-2.478-.71-2.664-2.003 0 0 1.132.136 2.27-.03 1.135-.166 2.382-.65 2.382-.65" fill="#1A1918"/><path fill="#CAA670" d="M20.032 36.378h6.662"/><path d="M20.032 36.076h6.662v.603h-6.662v-.604z" fill="#A1855B"/><path fill="#CAA670" d="M8.813 36.378h6.662"/><path d="M8.813 36.076h6.662v.603H8.813v-.604zM23.65 35.535c0 .16-.127.29-.286.29-.16 0-.288-.13-.288-.29 0-.16.128-.29.288-.29.16 0 .287.13.287.29M12.43 35.535c0 .16-.128.29-.287.29-.16 0-.288-.13-.288-.29 0-.16.13-.29.288-.29.16 0 .288.13.288.29" fill="#A1855B"/><path d="M7.13 11.908L7.104 7.09c0-3.9 2.104-7.51 5.49-9.415.1-.056.202-.083.31-.083.535 0 1.25.65 1.94 1.277.92.836 1.873 1.702 2.963 1.702 1.146 0 2.16-.798 3.143-1.57.773-.608 1.502-1.18 2.09-1.18.16 0 .304.042.445.13 3.147 1.988 5.025 5.405 5.025 9.14v4.816H7.13" id="Fill-62" fill="#CAA670"/><path d="M12.904-2.86v.904c.362 0 1.1.67 1.638 1.16.94.854 2.002 1.82 3.265 1.82 1.3 0 2.426-.885 3.42-1.666.647-.51 1.38-1.085 1.814-1.085.075 0 .136.02.206.063C26.26.24 28.06 3.514 28.06 7.092v4.364H7.578l-.024-4.364c0-3.74 2.016-7.196 5.26-9.022.04-.022.065-.026.09-.026v-.905m0 0c-.178 0-.354.043-.527.14-3.413 1.92-5.72 5.595-5.72 9.812l.028 5.27H28.96V7.09c0-4.014-2.092-7.536-5.236-9.522-.223-.14-.45-.202-.683-.202-1.56 0-3.34 2.752-5.233 2.752-1.76 0-3.423-2.98-4.903-2.98" id="Fill-63" fill="#A1855B"/><g id="Group-67" transform="translate(7.545 -2.159)"><mask id="e" fill="#fff"><use xlink:href="#d"/></mask><path d="M5.36.203c-.027 0-.052.004-.09.026-.226.126-.445.26-.66.402.733 3.68 3.105 6.376 5.92 6.376 2.728 0 5.043-2.537 5.846-6.05-.217-.16-.442-.316-.674-.463-.07-.044-.132-.063-.206-.063h-.03c-.438.027-1.152.588-1.784 1.085-.568.447-1.18.928-1.843 1.258-.497.246-1.02.41-1.578.41-.725 0-1.385-.32-1.993-.753-.45-.32-.873-.705-1.273-1.068C6.46.874 5.72.204 5.36.204" id="Fill-64" fill="#BE9C6A" mask="url(#e)"/><path d="M15.465.433c-.437.026-1.15.587-1.783 1.084-.568.447-1.18.928-1.843 1.258.662-.33 1.274-.81 1.842-1.258.632-.497 1.346-1.058 1.783-1.084m.03 0h-.01.01c.075 0 .136.018.207.062.232.147.457.302.674.464-.217-.163-.442-.318-.674-.465-.07-.044-.132-.063-.206-.063M5.36.202c-.027 0-.053.005-.09.027-.226.126-.445.26-.66.402.215-.142.434-.276.66-.403.038-.023.063-.027.09-.027.36 0 1.1.67 1.637 1.16.4.364.822.748 1.272 1.07-.45-.322-.873-.706-1.272-1.07-.54-.49-1.277-1.16-1.64-1.16" id="Fill-66" fill="#9B8058" mask="url(#e)"/></g><path d="M3.933 13.183H29.55c1.178 0 2.273-.607 2.903-1.61l.298-.472c.355-.562.188-1.307-.37-1.664-.56-.356-1.3-.19-1.653.374l-.298.473c-.19.304-.523.487-.88.487H3.934c-.662 0-1.198.54-1.198 1.207 0 .666.536 1.206 1.198 1.206" id="Fill-68" fill="#A1855B"/><path d="M22.108 32.217v-.646l.735-.402h1.04l.736.403v.647c0 .624-.394 1.18-.98 1.383 0 0-.23.082-.276.13-.062-.06-.278-.13-.278-.13-.585-.203-.978-.76-.978-1.383" id="Fill-69" fill="#EBDC23"/><path d="M9.273 32.198h5.536v1.156H9.272v-1.156z" id="Fill-70" fill="#343433"/></g></g><path d="M7.13 15.032l-.026-4.82c0-3.9 2.104-7.507 5.49-9.414.1-.056.202-.083.31-.083.535 0 1.25.65 1.94 1.277.92.838 1.872 1.704 2.963 1.704 1.146 0 2.16-.798 3.143-1.57.773-.608 1.502-1.182 2.09-1.182.158 0 .304.044.445.133 3.146 1.987 5.025 5.403 5.025 9.14v4.815H7.13" fill="#CAA670"/><path d="M12.904.263v.905c.362 0 1.1.67 1.638 1.16.938.853 2.002 1.82 3.265 1.82 1.3 0 2.426-.885 3.42-1.666.647-.51 1.38-1.085 1.814-1.085.075 0 .136.018.206.063 3.015 1.904 4.815 5.177 4.815 8.756v4.364H7.578l-.024-4.364c0-3.74 2.016-7.197 5.26-9.023.04-.02.064-.025.09-.025V.263m0 0c-.178 0-.354.043-.527.14-3.413 1.92-5.72 5.596-5.72 9.813l.027 5.27H28.96v-5.27c0-4.014-2.092-7.536-5.236-9.522-.223-.14-.45-.202-.683-.202-1.56 0-3.342 2.752-5.233 2.752-1.76 0-3.424-2.98-4.903-2.98" fill="#A1855B"/><g transform="translate(7.545 .965)"><mask id="g" fill="#fff"><use xlink:href="#f"/></mask><path d="M5.36.203c-.027 0-.052.004-.09.026-.226.126-.445.26-.66.402.733 3.68 3.105 6.376 5.92 6.376 2.728 0 5.043-2.537 5.846-6.05-.217-.16-.442-.316-.674-.463-.07-.044-.132-.063-.206-.063h-.03c-.438.027-1.152.588-1.784 1.085-.568.447-1.18.928-1.843 1.258-.497.246-1.02.41-1.578.41-.725 0-1.385-.32-1.993-.753-.45-.32-.873-.705-1.273-1.068C6.46.874 5.72.204 5.36.204" fill="#BE9C6A" mask="url(#g)"/><path d="M15.465.433c-.437.026-1.15.587-1.783 1.084-.568.447-1.18.928-1.843 1.258.662-.33 1.274-.81 1.842-1.258.632-.497 1.346-1.058 1.783-1.084m.03 0h-.01.01c.075 0 .136.018.207.062.232.147.457.302.674.464-.217-.163-.442-.318-.674-.465-.07-.044-.132-.063-.206-.063M5.36.202c-.027 0-.053.005-.09.027-.226.126-.445.26-.66.402.215-.142.434-.276.66-.403.038-.023.063-.027.09-.027.36 0 1.1.67 1.637 1.16.4.364.822.748 1.272 1.07-.45-.322-.873-.706-1.272-1.07-.54-.49-1.277-1.16-1.64-1.16" fill="#9B8058" mask="url(#g)"/></g><path d="M3.933 16.306H29.55c1.178 0 2.273-.607 2.903-1.608l.298-.474c.354-.563.188-1.308-.37-1.664-.56-.357-1.3-.19-1.653.374l-.298.473c-.19.303-.523.487-.88.487H3.934c-.662 0-1.198.54-1.198 1.206 0 .666.536 1.206 1.198 1.206" fill="#A1855B"/><path d="M22.108 35.34v-.645l.735-.403h1.04l.736.403v.646c0 .625-.394 1.18-.98 1.384 0 0-.23.082-.277.13-.062-.062-.277-.13-.277-.13-.585-.204-.978-.76-.978-1.383" fill="#EBDC23"/><path d="M9.273 35.322h5.536v1.156H9.272v-1.156z" fill="#343433"/></g></svg>