<svg xmlns="http://www.w3.org/2000/svg" viewBox="0 0 240 33"><g fill="#872717"><path d="M92 28.5v-24h11.5v3.6h-7.4v6.2h5.5v3.6h-5.5v10.6H92zM107.5 28.5v-24h4.1v24h-4.1zM116.4 28.5v-24h11v3.6h-6.9v6.2h5.3v3.6h-5.3v7h7.4v3.6h-11.5zM131.6 28.5v-24h4.1v20.4h6.5v3.6h-10.6zM145.2 4.5h6.1c2.1 0 3.8.6 4.9 1.8 1.1 1.2 1.6 3 1.6 5.5v9.5c0 2.5-.5 4.3-1.6 5.5-1.1 1.2-2.7 1.8-4.9 1.8h-6.1V4.5zm4.1 20.6h1.4c1.1 0 1.9-.2 2.3-.7.4-.5.6-1.4.6-2.6V11.3c0-1.3-.2-2.1-.6-2.6-.4-.5-1.2-.7-2.3-.7h-1.4v17.1zM174.2 16.3h6.7v12.1h-2l-.8-1.8c-.6.7-1.2 1.3-1.8 1.6-.6.3-1.4.5-2.3.5-1.6 0-3-.5-4-1.6s-1.5-2.6-1.5-4.5V10.3c0-.8.1-1.6.4-2.4.3-.8.6-1.4 1.1-2 .5-.6 1.1-1 1.9-1.3.8-.3 1.6-.5 2.7-.5 1 0 1.9.2 2.7.5.8.4 1.4.8 1.9 1.4.5.6.9 1.3 1.2 2.1.3.8.4 1.6.4 2.5v1.5h-3.9c0-.9 0-1.6-.1-2.2-.1-.6-.2-1.1-.4-1.4-.2-.3-.4-.6-.7-.7-.3-.1-.6-.2-1-.2-.5 0-.9.2-1.3.5-.4.4-.5 1.1-.5 2.1v12.3c0 .8.1 1.4.4 1.8.3.5.8.7 1.5.7.8 0 1.4-.3 1.8-.8.3-.5.5-1.4.5-2.6v-2.3h-2.6v-3zM185.3 4.5h4.1v18.1c0 1.7.7 2.6 2.2 2.6 1.5 0 2.2-.9 2.2-2.6V4.5h4.1v17.9c0 2.1-.6 3.7-1.7 4.7-1.1 1.1-2.7 1.6-4.6 1.6-2 0-3.5-.5-4.6-1.6-1.1-1.1-1.7-2.7-1.7-4.7V4.5zM202.9 28.5v-24h4.1v24h-4.1zM212 4.5h6.1c2.1 0 3.8.6 4.9 1.8 1.1 1.2 1.6 3 1.6 5.5v9.5c0 2.5-.5 4.3-1.6 5.5-1.1 1.2-2.7 1.8-4.9 1.8H212V4.5zm4.2 20.6h1.4c1.1 0 1.9-.2 2.3-.7.4-.5.6-1.4.6-2.6V11.3c0-1.3-.2-2.1-.6-2.6-.4-.5-1.2-.7-2.3-.7h-1.4v17.1zM228.5 28.5v-24h11v3.6h-6.9v6.2h5.3v3.6h-5.3v7h7.4v3.6h-11.5z"/><g><path d="M19.6 8.7c-2-.8-4.3-.9-6.5 0l3.3 7.8-7.8-3.3c-.8 2-.9 4.3 0 6.5s2.6 3.8 4.6 4.6 4.3.9 6.5 0 3.8-2.6 4.6-4.6c.8-2 .9-4.3 0-6.5-1-2.1-2.7-3.7-4.7-4.5zM60.7 8.7c-2-.8-4.3-.9-6.5 0l3.3 7.8-7.8-3.3c-.8 2-.9 4.3 0 6.5s2.6 3.8 4.6 4.6c2 .8 4.3.9 6.5 0s3.8-2.6 4.6-4.6c.8-2 .9-4.3 0-6.5-1-2.1-2.7-3.7-4.7-4.5z"/><path d="M57.4.2c-4.9 0-9.3 2.2-12.3 5.7-.3.4-.9.6-1.4.6h-2.3c-.6-1.9-2.4-3.3-4.6-3.3-2.1 0-3.9 1.4-4.6 3.3h-2.3c-.5 0-1-.2-1.4-.6-3.1-3.6-7.8-5.8-13-5.6C7.4.5.6 7.1 0 15.3c-.7 9.5 6.9 17.5 16.3 17.5 9 0 16.3-7.3 16.3-16.3v.5c0-2.3 1.9-4.2 4.2-4.2S41 14.7 41 17v-.5c0 9.4 8 17 17.5 16.3 8-.6 14.6-7.1 15.1-15.1C74.4 8.1 66.8.2 57.4.2zM16.3 29.6c-7.2 0-13.1-5.9-13.1-13.1S9.1 3.4 16.3 3.4c7.2 0 13.1 5.9 13.1 13.1s-5.8 13.1-13.1 13.1zM36.9 9.5c-.8 0-1.5-.7-1.5-1.5s.7-1.5 1.5-1.5 1.5.7 1.5 1.5-.7 1.5-1.5 1.5zm20.5 20.1c-7.2 0-13.1-5.9-13.1-13.1S50.2 3.4 57.4 3.4c7.2 0 13.1 5.9 13.1 13.1s-5.9 13.1-13.1 13.1z"/></g></g></svg>