<svg width="1440" height="213" viewBox="0 0 1440 213" xmlns="http://www.w3.org/2000/svg"><title>Rectangle 241 + Field Guide will lea + YOU CAN BUILD BETTER</title><g fill="none" fill-rule="evenodd"><g fill="#CA844A"><path id="Triangle-10" d="M617 35.5l6 20h-12z"/><path id="Triangle-15" d="M689 22.5l10 33h-20z"/><path id="Triangle-18" d="M725 22.5l10 33h-20z"/><path id="Triangle-19" d="M743 12.5l10 33h-20z"/><path id="Triangle-20" d="M761 22.5l10 33h-20z"/><path id="Triangle-22" d="M781.5 17.5l12.5 41h-25z"/><path id="Triangle-21" d="M802 22.5l10 33h-20z"/><path id="Triangle-22" d="M816.5 34.5l6.5 21h-13z"/><path id="Triangle-10" d="M575 35.5l6 20h-12z"/><path id="Triangle-12" d="M590.5 17.5l11.5 38h-23z"/><path id="Triangle-22" d="M627.5 34.5l6.5 21h-13z"/><path id="Triangle-10" d="M827 35.5l6 20h-12z"/><path id="Triangle-11" d="M843 15.5l12 40h-24z"/><path id="Triangle-12" d="M864.5 26.5l11.5 38h-23z"/><path id="Triangle-13" d="M889.5 31.5l15.5 51h-31z"/><path id="Triangle-14" d="M913 12.5l10 33h-20z"/><path id="Triangle-15" d="M931 22.5l10 33h-20z"/><path d="M958.5 1.5l19.5 64h-39"/><path id="Triangle-17" d="M986 22.5l10 33h-20z"/><path id="Triangle-18" d="M1004 12.5l10 33h-20z"/><path id="Triangle-19" d="M1022 22.5l10 33h-20z"/><path id="Triangle-21" d="M1071 22.5l10 33h-20z"/><path id="Triangle-22" d="M1103.5 34.5l6.5 21h-13z"/><path id="Triangle-10" d="M1036 35.5l6 20h-12z"/><path id="Triangle-12" d="M1051.5 14.5l11.5 38h-23z"/><path id="Triangle-14" d="M1089 26.5l10 33h-20z"/><path id="Triangle-15" d="M1118 22.5l10 33h-20z"/><path id="Triangle-17" d="M1136 22.5l10 33h-20z"/><path id="Triangle-18" d="M1154 12.5l10 33h-20z"/><path d="M1172 22.5l10 33h-20"/><path id="Triangle-20" d="M1219 22.5l10 33h-20z"/><path id="Triangle-22" d="M1239.5 5.5l12.5 41h-25z"/><path id="Triangle-21" d="M1260 24.5l10 33h-20z"/><path id="Triangle-22" d="M1274.5 34.5l6.5 21h-13z"/><path d="M108 35.5l6 20h-12"/><path id="Triangle-12" d="M145.5 24.5l11.5 38h-23z"/><path id="Triangle-18" d="M230 22.5l10 33h-20z"/><path id="Triangle-20" d="M271.5 4.5l15.5 51h-31zM295 22.5l10 33h-20z"/><path id="Triangle-22" d="M315.5 14.5l12.5 41h-25z"/><path id="Triangle-21" d="M336 22.5l10 33h-20z"/><path id="Triangle-22" d="M350.5 34.5l6.5 21h-13z"/><path id="Triangle-11" d="M1291 20.5l12 40h-24z"/><path id="Triangle-12" d="M1312.5 11.5l11.5 38h-23z"/><path d="M1337.5.5l15.5 51h-31"/><path id="Triangle-14" d="M1361 14.5l10 33h-20z"/><path id="Triangle-15" d="M1379 22.5l10 33h-20z"/><path id="Triangle-17" d="M1397 12.5l10 33h-20z"/><path id="Triangle-18" d="M1415 29.5l10 33h-20z"/><path d="M367 15.5l12 40h-24M388.5 17.5l11.5 38h-23"/><path id="Triangle-14" d="M437 22.5l10 33h-20z"/><path id="Triangle-15" d="M455 22.5l10 33h-20z"/><path id="Triangle-17" d="M473 30.5l10 33h-20z"/><path d="M527 22.5l10 33h-20"/><path id="Triangle-22" d="M547.5 14.5l12.5 41h-25zM564.5 34.5l6.5 21h-13z"/><path d="M-7 22.5l10 33h-20M11 32.5l10 33H1M29 40.5l10 33H19M47 29.5l10 33H37M83 31.5l10 33H73M97.5 34.5l6.5 21H91"/></g><path fill="#F5A15B" d="M0 212.875h1440v-170H0z"/></g></svg>