<svg xmlns="http://www.w3.org/2000/svg" viewBox="0 0 46 46"><circle fill="none" stroke="#F37960" stroke-width="1.5" stroke-linecap="round" stroke-linejoin="round" stroke-miterlimit="10" cx="23" cy="23" r="4.5"/><path fill="none" stroke="#F37960" stroke-width="1.5" stroke-linecap="round" stroke-linejoin="round" stroke-miterlimit="10" d="M14.9 39.6l2.1.9c.6.2 1.3 0 1.7-.5l1.9-2.1c.3-.4.8-.6 1.3-.5h2c.5 0 1 .2 1.3.5l1.9 2.1c.4.5 1.1.7 1.7.5.7-.3 1.4-.5 2.1-.9.6-.3.9-.9.9-1.6l-.1-2.9c0-.5.2-1 .6-1.3.5-.4 1-.9 1.4-1.4.3-.4.8-.6 1.3-.6l3 .2c.7 0 1.3-.3 1.6-.9l.9-2.1c.2-.6 0-1.3-.5-1.7l-2.1-1.9c-.4-.3-.6-.8-.5-1.3v-1-1c0-.5.2-1 .5-1.3l2.1-1.9c.5-.4.7-1.1.5-1.7-.3-.7-.5-1.4-.9-2.1-.3-.8-.9-1.1-1.6-1.1l-2.9.1c-.5 0-1-.2-1.3-.6-.4-.5-.9-1-1.4-1.4-.4-.3-.6-.8-.6-1.3L32 8c0-.7-.3-1.3-.9-1.6L29 5.5c-.6-.2-1.3 0-1.7.5l-1.9 2.1c-.4.4-.9.6-1.4.6h-2c-.5 0-1-.2-1.3-.5L18.8 6c-.4-.5-1.1-.7-1.7-.5-.7.3-1.4.5-2.1.9-.7.3-1 .9-1 1.6l.1 2.9c0 .5-.2 1-.6 1.3-.5.4-1 .9-1.4 1.4-.3.4-.8.6-1.3.6L8 14c-.7 0-1.3.3-1.6.9L5.5 17c-.2.6 0 1.3.5 1.7l2.1 1.9c.4.4.6.9.6 1.4v2c0 .5-.2 1-.5 1.3L6 27.2c-.5.4-.7 1.1-.5 1.7.3.7.5 1.4.9 2.1.3.7.9 1 1.6 1l2.9-.1c.5 0 1 .2 1.3.6.4.5 1.9 1.8 2.4 2.3"/></svg>