<svg width="898" height="480" viewBox="0 0 898 480" xmlns="http://www.w3.org/2000/svg" xmlns:xlink="http://www.w3.org/1999/xlink"><title>Triangle 3 + Rectangle 11 + Triangle 3 + Rectangle 11 Copy 2 + Triangle 3 + Rectangle 11 Copy + Rectangle 496 + Group + iPhone 4 Copy</title><defs><path id="a" d="M0 0h898v506H0z"/><path id="c" d="M203.196-4.515L406.392 401.81H0z"/><path id="e" d="M164.948-3.67l164.947 330.327H0z"/><path id="g" d="M139.337-3.087L278.673 274.77H0z"/><path id="i" d="M82.78-1.834l82.783 165.077H0z"/><path id="k" d="M237.656-5.266l237.656 473.92H0z"/></defs><g transform="translate(0 -17)" fill="none" fill-rule="evenodd"><mask id="b" fill="#fff"><use xlink:href="#a"/></mask><use id="Mask" opacity=".34" xlink:href="#a"/><g mask="url(#b)"><path id="Triangle-3" stroke="#F3F3F3" stroke-width="3.025" d="M414.568 88.386l203.196 406.326H211.372z"/><g id="Rectangle-10" transform="translate(211.372 92.901)"><mask id="d" fill="#fff"><use xlink:href="#c"/></mask><use id="Mask" xlink:href="#c"/><path d="M33.866-103.84L130.95 207.68l99.34-74.493 30.478 25.96L375.913-103.84H33.866z" stroke="#F3F3F3" stroke-width="3.025" mask="url(#d)"/></g><path id="Triangle-3" stroke="#F3F3F3" stroke-width="3.025" d="M600.72 164.947L765.665 494.79H435.77z"/><g id="Rectangle-10" transform="translate(435.771 168.347)"><mask id="f" fill="#fff"><use xlink:href="#e"/></mask><use id="Mask" xlink:href="#e"/><path d="M27.49-84.417l63.203 232.902 32.876-26.07 11.336 26.07 43.08-46.472 33.697 27.365 93.47-213.795H27.49z" stroke="#F3F3F3" stroke-width="3.025" mask="url(#f)"/></g><path id="Triangle-3" stroke="#F3F3F3" stroke-width="2.593" d="M240.772 217.223L380.108 495.08H101.435z"/><g id="Rectangle-10" transform="translate(101.435 220.31)"><mask id="h" fill="#fff"><use xlink:href="#g"/></mask><use id="Mask" xlink:href="#g"/><path d="M23.223-71.008l66.572 213.023 68.12-50.94 20.9 17.752 78.958-179.835H23.223z" stroke="#F3F3F3" stroke-width="2.593" mask="url(#h)"/></g><g><path id="Triangle-3" stroke="#F3F3F3" stroke-width="2.593" d="M83.354 330.605l82.782 165.077H.573z"/><g id="Rectangle-10" transform="translate(.573 332.439)"><mask id="j" fill="#fff"><use xlink:href="#i"/></mask><use id="Mask" xlink:href="#i"/><path d="M13.797-42.186l39.55 126.56L93.82 54.108l12.416 10.545 46.91-106.84H13.796z" stroke="#F3F3F3" stroke-width="2.593" mask="url(#j)"/></g></g><g><path stroke="#F3F3F3" stroke-width="2.593" d="M813.83 20.615l237.657 473.92H576.175z"/><g transform="translate(576.175 25.881)"><mask id="l" fill="#fff"><use xlink:href="#k"/></mask><use xlink:href="#k"/><path d="M39.61-121.113l113.546 363.338 116.188-86.885 35.648 30.278 134.672-306.73H39.61z" stroke="#F3F3F3" stroke-width="2.593" mask="url(#l)"/></g></g></g></g></svg>