<svg width="990" height="501" viewBox="0 0 990 501" xmlns="http://www.w3.org/2000/svg" xmlns:xlink="http://www.w3.org/1999/xlink"><title>Triangle 3 + Rectangle 11 + Triangle 3 + Rectangle 11 Copy 2 + Triangle 3 + Rectangle 11 Copy + Rectangle 496</title><defs><path id="a" d="M203.196-4.515L406.392 401.81H0z"/><path id="c" d="M164.948-3.67l164.947 330.327H0z"/><path id="e" d="M139.337-3.087L278.673 274.77H0z"/><path id="g" d="M82.78-1.834l82.783 165.077H0z"/><path id="i" d="M237.656-5.266l237.656 473.92H0z"/></defs><g fill="none" fill-rule="evenodd"><path id="Triangle-3" stroke="#F3F3F3" stroke-width="3.025" d="M506.568 71.386l203.196 406.326H303.372z"/><g id="Rectangle-10" transform="translate(303.372 75.901)"><mask id="b" fill="#fff"><use xlink:href="#a"/></mask><use id="Mask" xlink:href="#a"/><path d="M33.866-103.84L130.95 207.68l99.34-74.493 30.478 25.96L375.913-103.84H33.866z" stroke="#F3F3F3" stroke-width="3.025" mask="url(#b)"/></g><path id="Triangle-3" stroke="#F3F3F3" stroke-width="3.025" d="M692.72 147.947L857.665 477.79H527.77z"/><g id="Rectangle-10" transform="translate(527.771 151.347)"><mask id="d" fill="#fff"><use xlink:href="#c"/></mask><use id="Mask" xlink:href="#c"/><path d="M27.49-84.417l63.203 232.902 32.876-26.07 11.336 26.07 43.08-46.472 33.697 27.365 93.47-213.795H27.49z" stroke="#F3F3F3" stroke-width="3.025" mask="url(#d)"/></g><path id="Triangle-3" stroke="#F3F3F3" stroke-width="2.593" d="M332.772 200.223L472.108 478.08H193.435z"/><g id="Rectangle-10" transform="translate(193.435 203.31)"><mask id="f" fill="#fff"><use xlink:href="#e"/></mask><use id="Mask" xlink:href="#e"/><path d="M23.223-71.008l66.572 213.023 68.12-50.94 20.9 17.752 78.958-179.835H23.223z" stroke="#F3F3F3" stroke-width="2.593" mask="url(#f)"/></g><g><path id="Triangle-3" stroke="#F3F3F3" stroke-width="2.593" d="M175.354 313.605l82.782 165.077H92.573z"/><g id="Rectangle-10" transform="translate(92.573 315.439)"><mask id="h" fill="#fff"><use xlink:href="#g"/></mask><use id="Mask" xlink:href="#g"/><path d="M13.797-42.186l39.55 126.56L93.82 54.108l12.416 10.545 46.91-106.84H13.796z" stroke="#F3F3F3" stroke-width="2.593" mask="url(#h)"/></g></g><g><path stroke="#F3F3F3" stroke-width="2.593" d="M905.83 3.615l237.657 473.92H668.175z"/><g transform="translate(668.175 8.881)"><mask id="j" fill="#fff"><use xlink:href="#i"/></mask><use xlink:href="#i"/><path d="M39.61-121.113l113.546 363.338 116.188-86.885 35.648 30.278 134.672-306.73H39.61z" stroke="#F3F3F3" stroke-width="2.593" mask="url(#j)"/></g></g><path fill="#FFF" d="M0 456h1042v45H0z"/></g></svg>