<svg width="203" height="34" viewBox="0 0 203 34" xmlns="http://www.w3.org/2000/svg"><title>Line 4 + Nut</title><g fill="none" fill-rule="evenodd"><path d="M1.5 17.5h199.667" stroke="#979797" stroke-width="2" stroke-linecap="square" opacity=".6"/><path d="M103.036 6.21l-.51-.278c-.072-.04-.126-.105-.152-.184l-.357-1.08c-.02-.057-.022-.117-.01-.175l.56-2.505c.042-.194-.096-.38-.294-.396l-1.248-.09c-.032-.004-.064 0-.095.006l-1.324.303c-.148.034-.253.168-.252.32l.024 3.002c0 .106-.05.205-.134.267l-1.28.93c-.017.012-.032.025-.046.04C93.343 7.323 90 10.27 90 12.966c0 4.473 5.5.756 11 .756s11 4.463 11-.756c0-2.63-4.002-6-8.964-6.758z" fill="#FAFAFA"/><path d="M103.036 6.21l-.51-.278c-.072-.04-.126-.105-.152-.184l-.357-1.08c-.02-.057-.022-.117-.01-.175l.56-2.505c.042-.194-.096-.38-.294-.396l-1.248-.09c-.032-.004-.064 0-.095.006l-1.324.303c-.148.034-.253.168-.252.32l.024 3.002c0 .106-.05.205-.134.267l-1.28.93c-.017.012-.032.025-.046.04C93.343 7.323 90 10.27 90 12.966c0 4.473 5.5.756 11 .756s11 4.463 11-.756c0-2.63-4.002-6-8.964-6.758z" stroke="#C1C1C1" stroke-width="2"/><path d="M110.455 16.066c-1.674-4.748-16.88-4.787-18.092.078-1.035 4.155-.28 14.162 7.922 15.145l.725.854c.19.225.483.356.794.356h.39c.402 0 .775-.192.985-.506l.75-.878c7.28-1.686 7.805-11.42 6.525-15.05z" fill="#FAFAFA"/><path d="M110.455 16.066c-1.674-4.748-16.88-4.787-18.092.078-1.035 4.155-.28 14.162 7.922 15.145l.725.854c.19.225.483.356.794.356h.39c.402 0 .775-.192.985-.506l.75-.878c7.28-1.686 7.805-11.42 6.525-15.05z" stroke="#C1C1C1" stroke-width="2"/></g></svg>