<svg xmlns="http://www.w3.org/2000/svg" viewBox="0 0 40 40"><path fill="#88291B" d="M40 7.1c-1.5.7-3.1 1.1-4.7 1.3 1.7-1.1 3-2.7 3.6-4.7-1.6 1-3.3 1.7-5.2 2.1-1.5-1.7-3.6-2.7-6-2.7-4.5 0-8.2 3.8-8.2 8.5 0 .7.1 1.3.2 1.9-6.8-.3-12.9-3.6-16.9-8.8C2.1 6 1.7 7.4 1.7 9c0 2.9 1.4 5.6 3.7 7.1C4 16 2.7 15.6 1.6 15v.1c0 4.1 2.8 7.6 6.6 8.3-.7.2-1.4.3-2.2.3-.5 0-1-.1-1.5-.2 1 3.4 4.1 5.8 7.7 5.9-2.9 2.4-6.4 3.7-10.2 3.7-.7 0-1.3 0-2-.1 3.6 2.4 7.9 3.8 12.6 3.8 15.1 0 23.3-13 23.3-24.2v-1.1c1.6-1.2 3-2.6 4.1-4.4z"/></svg>