<?xml version="1.0" encoding="utf-8"?>
<!-- Generator: Adobe Illustrator 17.1.0, SVG Export Plug-In . SVG Version: 6.00 Build 0)  -->
<!DOCTYPE svg PUBLIC "-//W3C//DTD SVG 1.1//EN" "http://www.w3.org/Graphics/SVG/1.1/DTD/svg11.dtd">
<svg version="1.1" id="Layer_1" xmlns="http://www.w3.org/2000/svg" xmlns:xlink="http://www.w3.org/1999/xlink" x="0px" y="0px"
	 viewBox="0 0 104 67" enable-background="new 0 0 104 67" xml:space="preserve">
<g>
	<g>
		
			<rect x="0.5" y="0.6" transform="matrix(0.9719 0.2355 -0.2355 0.9719 0.3593 -0.3866)" fill="#FFFFFF" width="2.5" height="1.5"/>
	</g>
	<g>
		<path fill="#FFFFFF" d="M96.5,49.6l-0.9-4.5c0-0.2-0.1-0.3-0.1-0.5l1.5-0.3c0,0.2,0.1,0.3,0.1,0.5l0.9,4.5L96.5,49.6z M93.5,39.1
			c-0.7-1.4-1.6-2.8-2.6-4.2l1.2-0.9c1.1,1.5,2,3,2.8,4.4L93.5,39.1z M86.9,30.2c-1.2-1.2-2.4-2.3-3.7-3.4l1-1.2
			c1.4,1.1,2.6,2.3,3.8,3.5L86.9,30.2z M78.3,23.3c-1.4-0.9-2.9-1.7-4.4-2.5l0.7-1.3c1.5,0.8,3,1.6,4.5,2.6L78.3,23.3z M68.4,18.4
			c-1.2-0.4-2.5-0.8-3.7-1.1L63.5,17l0.4-1.5l1.1,0.3c1.3,0.3,2.6,0.7,3.9,1.1L68.4,18.4z M57.5,15.6l-5-1.2l0.4-1.5l5,1.2
			L57.5,15.6z M46.6,12.9l-5-1.2l0.4-1.5l5,1.2L46.6,12.9z M35.7,10.3l-5-1.2L31,7.6l5,1.2L35.7,10.3z M24.7,7.6l-5-1.2L20.1,5
			l5,1.2L24.7,7.6z M13.8,5l-5-1.2l0.4-1.5l5,1.2L13.8,5z"/>
	</g>
	<g>
		
			<rect x="97.5" y="56" transform="matrix(0.1965 0.9805 -0.9805 0.1965 134.9371 -51.2369)" fill="#FFFFFF" width="2.5" height="1.5"/>
	</g>
	<g>
		<g>
			<polygon fill="#FFFFFF" points="92.7,54.9 98.6,56.1 103.6,52.7 100.7,66.7 			"/>
		</g>
	</g>
</g>
</svg>
