<?xml version="1.0" encoding="utf-8"?>
<!-- Generator: Adobe Illustrator 17.1.0, SVG Export Plug-In . SVG Version: 6.00 Build 0)  -->
<!DOCTYPE svg PUBLIC "-//W3C//DTD SVG 1.1//EN" "http://www.w3.org/Graphics/SVG/1.1/DTD/svg11.dtd">
<svg version="1.1" id="Layer_1" xmlns="http://www.w3.org/2000/svg" xmlns:xlink="http://www.w3.org/1999/xlink" x="0px" y="0px"
	 viewBox="0 0 175 57" enable-background="new 0 0 175 57" xml:space="preserve">
<g>
	<g>
		<rect x="0.3" y="1" transform="matrix(0.6219 0.7831 -0.7831 0.6219 1.9339 -0.5827)" fill="#FFFFFF" width="2.5" height="1.5"/>
	</g>
	<g>
		<path fill="#FFFFFF" d="M161.5,45.5l-0.2-0.2c-1-0.9-2.2-1.8-3.6-2.6l0.8-1.3c1.5,0.9,2.8,1.9,3.8,2.8l0.2,0.2L161.5,45.5z
			 M152.5,40c-1.4-0.6-3-1.2-4.6-1.7l0.5-1.4c1.6,0.6,3.2,1.2,4.7,1.8L152.5,40z M142.3,36.6c-1.6-0.4-3.2-0.8-4.8-1.1l0.3-1.5
			c1.6,0.3,3.3,0.7,4.9,1.1L142.3,36.6z M55,35c-1.4,0-2.8-0.1-4.2-0.2l0.1-1.5c1.6,0.1,3.2,0.2,4.8,0.2l0.1,1.5
			C55.5,35,55.3,35,55,35z M61.8,34.9l0-1.5l4.9-0.1l0,1.5L61.8,34.9z M72.6,34.7l0-1.5l4.9-0.1l0,1.5L72.6,34.7z M131.7,34.6
			c-1.6-0.2-3.3-0.4-4.9-0.5l0.1-1.5c1.6,0.1,3.3,0.3,5,0.5L131.7,34.6z M83.5,34.6l0-1.5l4.9-0.1l0,1.5L83.5,34.6z M94.4,34.4
			l0-1.5l4.9-0.1l0,1.5L94.4,34.4z M105.2,34.2l0-1.5l4.9-0.1l0,1.5L105.2,34.2z M44.9,34.1c-1.6-0.3-3.3-0.7-4.9-1.1l0.4-1.5
			c1.6,0.4,3.2,0.8,4.8,1.1L44.9,34.1z M116.1,34l0-1.5l4.9-0.1l0,1.5L116.1,34z M34.3,31.2c-1.6-0.6-3.1-1.2-4.6-1.8l0.6-1.4
			c1.5,0.6,3,1.2,4.5,1.8L34.3,31.2z M24.3,26.7C22.8,25.9,21.3,25,20,24l0.9-1.2c1.3,0.9,2.6,1.8,4.1,2.6L24.3,26.7z M15.4,20.1
			c-0.6-0.6-1.2-1.3-1.7-1.9l-1.5-1.9l1.2-0.9l1.5,1.9c0.5,0.6,1,1.2,1.6,1.8L15.4,20.1z M8.5,11.7L5.4,7.8l1.2-0.9l3.1,3.9
			L8.5,11.7z"/>
	</g>
	<g>
		
			<rect x="166" y="49.1" transform="matrix(0.7349 0.6782 -0.6782 0.7349 78.1398 -100.2557)" fill="#FFFFFF" width="2.5" height="1.5"/>
	</g>
	<g>
		<g>
			<polygon fill="#FFFFFF" points="161.4,51.9 166.9,49.4 168.9,43.7 174.8,56.7 			"/>
		</g>
	</g>
</g>
</svg>
