<?xml version="1.0" encoding="utf-8"?>
<!-- Generator: Adobe Illustrator 17.1.0, SVG Export Plug-In . SVG Version: 6.00 Build 0)  -->
<!DOCTYPE svg PUBLIC "-//W3C//DTD SVG 1.1//EN" "http://www.w3.org/Graphics/SVG/1.1/DTD/svg11.dtd">
<svg version="1.1" id="Layer_1" xmlns="http://www.w3.org/2000/svg" xmlns:xlink="http://www.w3.org/1999/xlink" x="0px" y="0px"
	 viewBox="0 0 168 73" enable-background="new 0 0 168 73" xml:space="preserve">
<g>
	<g>
		
			<rect x="165.6" y="0.6" transform="matrix(0.7158 0.6983 -0.6983 0.7158 48.555 -115.6132)" fill="#FFFFFF" width="1.5" height="2.5"/>
	</g>
	<g>
		<path fill="#FFFFFF" d="M11.9,59.4l-1.2-0.9l3.2-4l1.2,0.9L11.9,59.4z M19,50.9l-1-1.1c1.2-1.1,2.6-2.2,4.1-3.2l0.8,1.2
			C21.5,48.9,20.2,49.9,19,50.9z M96.9,50.3c-1.2,0-2.5,0-3.7-0.1l0.1-1.5c1.6,0.1,3.3,0.2,5,0.1l0,1.5
			C97.9,50.3,97.4,50.3,96.9,50.3z M104.5,49.7l-0.2-1.5c1.6-0.2,3.3-0.6,4.9-0.9l0.3,1.5C107.9,49.2,106.2,49.5,104.5,49.7z
			 M87.1,49.2l-4.9-1.3l0.4-1.5l4.9,1.3L87.1,49.2z M115.5,47l-0.5-1.4c1.6-0.5,3.2-1.2,4.7-1.8l0.6,1.4
			C118.8,45.8,117.2,46.5,115.5,47z M76.2,46.4l-4.9-1.3l0.4-1.5l4.9,1.3L76.2,46.4z M28.2,45l-0.6-1.4c1.5-0.7,3.1-1.3,4.8-1.9
			l0.5,1.4C31.2,43.7,29.7,44.3,28.2,45z M65.4,43.6l-4.9-1.3l0.4-1.5l4.9,1.3L65.4,43.6z M125.8,42.3L125,41
			c1.5-0.9,2.9-1.8,4.1-2.8l0.9,1.2C128.8,40.4,127.3,41.4,125.8,42.3z M38.7,41.6l-0.3-1.5c1.7-0.3,3.4-0.6,5.1-0.8l0.2,1.5
			C42,41,40.3,41.3,38.7,41.6z M54.6,41.1c-1.6-0.2-3.3-0.4-5-0.4l0-1.5c1.8,0.1,3.5,0.2,5.2,0.5L54.6,41.1z M134.7,35.3l-1.1-1
			l3.6-3.6l1.1,1L134.7,35.3z M142.5,27.3l-1.1-1l3.6-3.6l1.1,1L142.5,27.3z M150.4,19.3l-1.1-1l3.6-3.6l1.1,1L150.4,19.3z
			 M158.2,11.3l-1.1-1l3.6-3.6l1.1,1L158.2,11.3z"/>
	</g>
	<g>
		
			<rect x="5.9" y="63.4" transform="matrix(0.7788 0.6272 -0.6272 0.7788 42.0075 10.1116)" fill="#FFFFFF" width="1.5" height="2.5"/>
	</g>
	<g>
		<g>
			<polygon fill="#FFFFFF" points="4.2,58.8 7,64.2 12.9,65.8 0.3,72.6 			"/>
		</g>
	</g>
</g>
</svg>
