<?xml version="1.0" encoding="UTF-8" standalone="no"?>
<svg width="64px" height="30px" viewBox="0 0 64 30" version="1.1" xmlns="http://www.w3.org/2000/svg" xmlns:xlink="http://www.w3.org/1999/xlink" xmlns:sketch="http://www.bohemiancoding.com/sketch/ns">
    <!-- Generator: Sketch 3.3.1 (12005) - http://www.bohemiancoding.com/sketch -->
    <title>FG Logo 4</title>
    <desc>Created with Sketch.</desc>
    <defs></defs>
    <g id="Homepage-0.8" stroke="none" stroke-width="1" fill="none" fill-rule="evenodd" sketch:type="MSPage">
        <g id="Desktop-III-Copy-11" sketch:type="MSArtboardGroup" transform="translate(-30.000000, -38.000000)" fill="#585858">
            <g id="FG-Logo-4-+-FIELD-GUIDE-2-+-Twitter-2" sketch:type="MSLayerGroup" transform="translate(0.000000, -1.000000)">
                <g id="FG-Logo-4" transform="translate(31.000000, 40.000000)" sketch:type="MSShapeGroup">
                    <path d="M16.7026364,7.2674 C14.9863636,6.5482 12.9970909,6.4902 11.1433636,7.2674 L13.923,14.065 L7.21063636,11.2500667 C6.50045455,12.9881333 6.44318182,15.0026667 7.21063636,16.8799333 C7.97809091,18.7572 9.42518182,20.1414667 11.1433636,20.8626 C12.8596364,21.5818 14.8508182,21.6398 16.7026364,20.8626 C18.5563636,20.0834667 19.9232727,18.6199333 20.6353636,16.8799333 C21.3455455,15.1399333 21.4028182,13.1273333 20.6353636,11.2500667 C19.8679091,9.3728 18.4208182,7.98853333 16.7026364,7.2674" id="Fill-1"></path>
                    <path d="M51.8375455,7.2674 C50.1212727,6.5482 48.132,6.4902 46.2782727,7.2674 L49.0579091,14.065 L42.3455455,11.2500667 C41.6353636,12.9881333 41.5780909,15.0026667 42.3455455,16.8799333 C43.1149091,18.7572 44.5600909,20.1414667 46.2782727,20.8626 C47.9964545,21.5818 49.9838182,21.6398 51.8375455,20.8626 C53.6912727,20.0834667 55.0581818,18.6199333 55.7702727,16.8799333 C56.4804545,15.1399333 56.5377273,13.1273333 55.7702727,11.2500667 C55.0028182,9.3728 53.5557273,7.98853333 51.8375455,7.2674" id="Fill-2"></path>
                    <path d="M49.0579091,-0.087 C44.8445455,-0.087 41.0626364,1.81346667 38.4987273,4.81013333 C38.2009091,5.15813333 37.7637273,5.3476 37.3112727,5.3476 L35.385,5.3476 C34.8409091,3.69653333 33.3021818,2.50173333 31.4904545,2.50173333 C29.6787273,2.50173333 28.14,3.69653333 27.5959091,5.3476 L25.6696364,5.3476 C25.2152727,5.3476 24.7780909,5.15426667 24.4802727,4.80626667 C21.8056364,1.68393333 17.8099091,-0.2494 13.3789091,-0.0773333333 C6.31145455,0.195266667 0.475363636,5.9102 -0.0171818182,13.0558 C-0.586090909,21.3130667 5.88763636,28.217 13.923,28.217 C21.63,28.217 27.8994545,21.8698667 27.8994545,14.065 L27.8994545,14.4632667 C27.8994545,12.4545333 29.5069091,10.8247333 31.4904545,10.8247333 C33.474,10.8247333 35.0814545,12.4545333 35.0814545,14.4632667 L35.0814545,14.065 C35.0814545,22.2043333 41.9007273,28.7602667 50.0563636,28.1822 C56.9424545,27.695 62.5189091,22.0477333 62.9980909,15.0761333 C63.5689091,6.81693333 57.0951818,-0.087 49.0579091,-0.087 L49.0579091,-0.087 Z M13.923,25.3885333 C7.75663636,25.3885333 2.74145455,20.3096667 2.74145455,14.065 C2.74145455,7.82033333 7.75663636,2.74146667 13.923,2.74146667 C20.0893636,2.74146667 25.1045455,7.82033333 25.1045455,14.065 C25.1045455,20.3096667 20.0893636,25.3885333 13.923,25.3885333 L13.923,25.3885333 Z M31.4904545,7.9924 C30.7669091,7.9924 30.177,7.395 30.177,6.66226667 C30.177,5.9276 30.7669091,5.33213333 31.4904545,5.33213333 C32.214,5.33213333 32.8039091,5.9276 32.8039091,6.66226667 C32.8039091,7.395 32.214,7.9924 31.4904545,7.9924 L31.4904545,7.9924 Z M49.0579091,25.3885333 C42.8934545,25.3885333 37.8763636,20.3096667 37.8763636,14.065 C37.8763636,7.82033333 42.8934545,2.74146667 49.0579091,2.74146667 C55.2242727,2.74146667 60.2394545,7.82033333 60.2394545,14.065 C60.2394545,20.3096667 55.2242727,25.3885333 49.0579091,25.3885333 L49.0579091,25.3885333 Z" id="Fill-3"></path>
                </g>
            </g>
        </g>
    </g>
</svg>