<?xml version="1.0" encoding="UTF-8" standalone="no"?>
<svg width="36px" height="40px" viewBox="0 0 36 40" version="1.1" xmlns="http://www.w3.org/2000/svg" xmlns:xlink="http://www.w3.org/1999/xlink" xmlns:sketch="http://www.bohemiancoding.com/sketch/ns">
    <!-- Generator: Sketch 3.3.1 (12005) - http://www.bohemiancoding.com/sketch -->
    <title>Imported Layers Copy 4 + Imported Layers Copy 3 Copy Copy</title>
    <desc>Created with Sketch.</desc>
    <defs>
        <ellipse id="path-1" cx="17.9461615" cy="18.0743802" rx="17.9461615" ry="18.0743802"></ellipse>
        <path id="path-3" d="M3.0021048,24.0409761 L3.0021048,22.1316172 L2.30749194,21.9684834 C1.02485337,21.6672437 0.129042303,20.5313379 0.129042303,19.2051597 L0.129042303,3.18909984 C0.129042303,1.8629216 1.02485337,0.726412776 2.30749194,0.425474648 L2.96078731,0.272291713 L3.1883329,0.359135582 L3.29611765,0.372403395 C3.7458196,0.427886978 4.17905443,0.593131561 4.54941482,0.850647755 L4.63923545,0.913368327 L10.6838643,3.22196784 C11.5084177,3.53677686 12.3739891,3.6965937 13.2560277,3.6965937 C14.1380663,3.6965937 15.0036377,3.53677686 15.8281911,3.22196784 L21.8838979,0.908845209 L21.9731197,0.847029261 C22.3395878,0.593734644 22.7689304,0.429696225 23.2144408,0.37360956 L23.3207285,0.360040205 L23.5512681,0.271990172 L24.2057611,0.424268483 C25.4910943,0.723698906 26.3887018,1.86050927 26.3887018,3.18909984 L26.3887018,19.2051597 C26.3887018,20.5337503 25.4910943,21.6702591 24.2057611,21.9696895 L23.5099506,22.1316172 L23.5099506,24.0409761 L3.0021048,24.0409761 L3.0021048,24.0409761 Z"></path>
        <path id="path-5" d="M0.0320360241,13.6154903 C0.0239521675,12.1077842 0.00808385654,9.24645968 0.00808385654,9.24645968 C0.00808385654,5.51187179 2.02395816,2.05470181 5.26887805,0.228869779 C5.30720152,0.207158812 5.3326507,0.202635694 5.35869868,0.202635694 C5.72127461,0.202635694 6.45900137,0.873866428 6.99762574,1.36356935 C7.9356525,2.21662944 8.99882934,3.1836721 10.2620068,3.1836721 C11.5623101,3.1836721 12.6880619,2.29834711 13.6817775,1.51735537 C14.3287854,1.00865535 15.0620211,0.432108555 15.4958548,0.432108555 C15.5698071,0.432108555 15.6314839,0.45080411 15.7018434,0.495432209 C18.7162237,2.39936341 20.5159297,5.67259325 20.5159297,9.25128434 L20.5159297,13.6154903 L0.0320360241,13.6154903"></path>
        <path id="path-7" d="M0.0320360241,13.6154903 C0.0239521675,12.1077842 0.00808385654,9.24645968 0.00808385654,9.24645968 C0.00808385654,5.51187179 2.02395816,2.05470181 5.26887805,0.228869779 C5.30720152,0.207158812 5.3326507,0.202635694 5.35869868,0.202635694 C5.72127461,0.202635694 6.45900137,0.873866428 6.99762574,1.36356935 C7.9356525,2.21662944 8.99882934,3.1836721 10.2620068,3.1836721 C11.5623101,3.1836721 12.6880619,2.29834711 13.6817775,1.51735537 C14.3287854,1.00865535 15.0620211,0.432108555 15.4958548,0.432108555 C15.5698071,0.432108555 15.6314839,0.45080411 15.7018434,0.495432209 C18.7162237,2.39936341 20.5159297,5.67259325 20.5159297,9.25128434 L20.5159297,13.6154903 L0.0320360241,13.6154903"></path>
    </defs>
    <g id="Homepage-0.8" stroke="none" stroke-width="1" fill="none" fill-rule="evenodd" sketch:type="MSPage">
        <g id="Desktop-III-Copy-11" sketch:type="MSArtboardGroup" transform="translate(-451.000000, -118.000000)">
            <g id="Group" sketch:type="MSLayerGroup" transform="translate(0.000000, 108.000000)">
                <g id="Imported-Layers-Copy-4-+-Imported-Layers-Copy-3-Copy-Copy-+-New-to-user-research" transform="translate(451.000000, 10.000000)">
                    <g id="Imported-Layers-Copy-4-+-Imported-Layers-Copy-3-Copy-Copy">
                        <g id="Imported-Layers-Copy-4" transform="translate(0.000000, 3.123967)">
                            <mask id="mask-2" sketch:name="Mask" fill="white">
                                <use xlink:href="#path-1"></use>
                            </mask>
                            <use id="Mask" fill="#70910D" sketch:type="MSShapeGroup" xlink:href="#path-1"></use>
                            <g id="Imported-Layers-Copy-2" mask="url(#mask-2)">
                                <g transform="translate(2.455097, -3.063659)">
                                    <path d="M6.31888119,35.9910543 C5.40121378,35.9910543 4.65480436,35.2390105 4.65480436,34.3150882 L4.65480436,22.8299866 L4.18534187,22.8387313 L4.15210824,22.8408421 C3.11527879,22.8408421 2.26587505,21.9850681 2.26587505,20.9335939 C2.26587505,19.8818182 3.11527879,19.0263458 4.15959329,19.0263458 L4.19701855,19.0284566 L4.65480436,19.0375028 L4.65480436,15.647275 C4.65480436,14.7230512 5.40121378,13.9713089 6.31888119,13.9713089 L24.3964802,13.9713089 C25.314447,13.9713089 26.0608565,14.7230512 26.0608565,15.647275 L26.0608565,19.0254411 L26.508762,19.0266473 C27.5503819,19.0290596 28.3976898,19.8845321 28.3976898,20.9335939 C28.3976898,21.9820527 27.5503819,22.8375251 26.508762,22.8405405 L26.0608565,22.8417467 L26.0608565,34.3150882 C26.0608565,35.2390105 25.314447,35.9910543 24.3964802,35.9910543 L6.31888119,35.9910543" id="Fill-13" fill="#FCDE98" sketch:type="MSShapeGroup"></path>
                                    <path d="M24.3967796,14.4236207 C25.0665421,14.4236207 25.6117533,14.9724257 25.6117533,15.647275 L25.6117533,19.4765468 L26.5075644,19.4789591 C27.3021776,19.4810699 27.9485867,20.1336051 27.9485867,20.9335939 C27.9485867,21.7335828 27.3021776,22.3861179 26.5075644,22.3882287 L25.6117533,22.3903395 L25.6117533,34.3147867 C25.6117533,34.9896359 25.0665421,35.5387425 24.3967796,35.5387425 L6.31888119,35.5387425 C5.64911871,35.5387425 5.1039075,34.9896359 5.1039075,34.3147867 L5.1039075,22.3680255 L4.18803649,22.3864195 L4.13923395,22.3882287 C3.35180644,22.3773732 2.71467879,21.7290596 2.71467879,20.9335939 C2.71467879,20.1381282 3.35180644,19.4898146 4.13893455,19.4786576 L4.1889347,19.4807684 L5.1039075,19.4982578 L5.1039075,15.647275 C5.1039075,14.9724257 5.64911871,14.4236207 6.31888119,14.4236207 L24.3967796,14.4236207 M24.3967796,13.5189971 L6.31888119,13.5189971 C5.15181183,13.5189971 4.20570121,14.4718673 4.20570121,15.647275 L4.20570121,18.5764463 L4.15929389,18.574034 C2.86557744,18.574034 1.8164725,19.6303328 1.8164725,20.9335939 C1.8164725,22.2365535 2.86557744,23.2931539 4.15929389,23.2931539 L4.20570121,23.2907416 L4.20570121,34.3147867 C4.20570121,35.4904959 5.15181183,36.4433661 6.31888119,36.4433661 L24.3967796,36.4433661 C25.563849,36.4433661 26.5099596,35.4904959 26.5099596,34.3147867 L26.5099596,23.2928524 C27.8009814,23.2895354 28.846793,22.2347442 28.846793,20.9335939 C28.846793,19.6324436 27.8009814,18.5776524 26.5099596,18.5743355 L26.5099596,15.647275 C26.5099596,14.4718673 25.563849,13.5189971 24.3967796,13.5189971" id="Fill-14" fill="#A1855B" sketch:type="MSShapeGroup"></path>
                                    <path d="M4.64881631,54.6471074 L4.64881631,52.6448738 L4.30180929,52.5631561 C2.81437968,52.214273 1.77605322,50.8968394 1.77605322,49.3595823 L1.77605322,33.3429194 C1.77605322,31.8056623 2.81437968,30.4882287 4.30180929,30.139044 L4.64881631,30.0576279 L4.64881631,29.7865423 L5.39283052,30.0705941 L5.44672289,30.0775296 C5.96798194,30.1417579 6.47067806,30.3338396 6.90061946,30.632667 L6.94552978,30.6640273 L12.9386615,32.9530266 C13.7126159,33.2488385 14.5245944,33.3984029 15.3521418,33.3984029 C16.1793898,33.3984029 16.9913682,33.2488385 17.7650232,32.9530266 L23.7698316,30.6595041 L23.8144426,30.6284454 C24.2398929,30.3341412 24.7377986,30.1441702 25.2545666,30.0790373 L25.3075608,30.0721019 L26.054569,29.7868439 L26.054569,30.0567233 L26.4027737,30.1375363 C27.8928979,30.4849118 28.933919,31.8029484 28.933919,33.3429194 L28.933919,49.3595823 C28.933919,50.8995533 27.8928979,52.2175899 26.4027737,52.5643623 L26.054569,52.6457784 L26.054569,54.6471074 L4.64881631,54.6471074" id="Fill-15" fill="#CAA670" sketch:type="MSShapeGroup"></path>
                                    <path d="M25.6473822,30.4261112 L26.3015758,30.5783895 C27.5869089,30.87782 28.4848158,32.0146303 28.4848158,33.3432209 L28.4848158,49.3592808 C28.4848158,50.6878713 27.5869089,51.8246817 26.3015758,52.1238106 L25.6057653,52.2860398 L25.6057653,54.1950972 L5.09791945,54.1950972 L5.09791945,52.2857382 L4.403606,52.1226044 C3.12096743,51.8216663 2.22485696,50.685459 2.22485696,49.3592808 L2.22485696,33.3432209 C2.22485696,32.0170427 3.12096743,30.8805338 4.403606,30.5795957 L5.05690137,30.4264128 L5.18265025,30.4743578 L5.28414756,30.5132566 L5.39223171,30.5265245 C5.84163426,30.582008 6.27516849,30.7472526 6.64522948,31.0047688 L6.7350501,31.0674894 L6.83714622,31.1063882 L12.779679,33.3760889 C13.6045318,33.6908979 14.4698038,33.8507148 15.3518424,33.8507148 C16.2338809,33.8507148 17.0994524,33.6908979 17.9240058,33.3760889 L23.878814,31.1015635 L23.9800119,31.0629663 L24.0692337,31.0011503 C24.4351031,30.7475542 24.8644457,30.5838173 25.309956,30.5277306 L25.4165432,30.5141613 L25.5168429,30.4758655 L25.6473822,30.4261112 M26.5039716,29.1315948 L25.1985784,29.6300424 C24.5955826,29.7060308 24.0374971,29.9252513 23.5602502,30.2557405 L17.6057413,32.5302658 C16.8796913,32.8073822 16.1159165,32.9460911 15.3518424,32.9460911 C14.5880676,32.9460911 13.8239935,32.8073822 13.0979434,32.5302658 L7.15571005,30.2605651 C6.67427148,29.9255528 6.11049734,29.7036185 5.50121408,29.6285347 L4.19971317,29.1315948 L4.19971317,29.6987938 C2.55419926,30.0847666 1.32695008,31.5680478 1.32695008,33.3432209 L1.32695008,49.3592808 C1.32695008,51.1344539 2.55419926,52.6174335 4.19971317,53.0037078 L4.19971317,55.0997208 L26.5039716,55.0997208 L26.5039716,53.0052155 C28.1524795,52.6213536 29.3830221,51.1365647 29.3830221,49.3592808 L29.3830221,33.3432209 C29.3830221,31.565937 28.1524795,30.0811481 26.5039716,29.6969846 L26.5039716,29.1315948" id="Fill-16" fill="#A1855B" sketch:type="MSShapeGroup"></path>
                                    <g id="Group-22" stroke-width="1" fill="none" sketch:type="MSLayerGroup" transform="translate(2.095815, 30.154121)">
                                        <mask id="mask-4" sketch:name="Clip 18" fill="white">
                                            <use xlink:href="#path-3"></use>
                                        </mask>
                                        <g id="Clip-18"></g>
                                    </g>
                                    <path d="M18.565325,30.8832477 L17.4072377,31.2746482 C16.7808886,31.4863301 16.1183117,31.6995198 15.470705,31.6995198 C15.2045365,31.6995198 14.9407633,31.6636364 14.6832775,31.576491 L13.5251902,31.4866317 C13.4650104,31.4866317 13.4078246,31.4863301 13.3542316,31.4863301 C12.9581226,31.4863301 12.7608166,31.5080411 13.0195001,31.872906 L13.6066276,32.7000335 C14.1769886,32.8640719 14.7644155,32.9460911 15.3518424,32.9460911 C16.1159165,32.9460911 16.8796913,32.8073822 17.6057413,32.5302658 L18.9758053,32.0067903 L19.0707158,31.872906 C19.3647286,31.4585883 19.0707158,30.8832477 18.565325,30.8832477" id="Fill-26" fill="#E8CB8B" sketch:type="MSShapeGroup"></path>
                                    <path d="M18.0341857,33.3338731 L17.9240058,33.3760889 C17.0994524,33.6908979 16.2338809,33.8507148 15.3518424,33.8507148 C15.0239971,33.8507148 14.6982476,33.8287023 14.3760909,33.7846772 L15.0967518,34.8005696 L15.0967518,52.5215434 L16.0452576,53.586587 L17.0177156,52.5215434 L17.0177156,34.766797 L18.0341857,33.3338731" id="Fill-27" fill="#BE9C6A" sketch:type="MSShapeGroup"></path>
                                    <path d="M18.9758053,32.0067903 L17.6057413,32.5302658 C16.8796913,32.8073822 16.1159165,32.9460911 15.3518424,32.9460911 C14.7644155,32.9460911 14.1769886,32.8640719 13.6066276,32.7000335 L14.3760909,33.7846772 C14.6982476,33.8287023 15.0239971,33.8507148 15.3518424,33.8507148 C16.2338809,33.8507148 17.0994524,33.6908979 17.9240058,33.3760889 L18.0341857,33.3338731 L18.9758053,32.0067903" id="Fill-28" fill="#9B8058" sketch:type="MSShapeGroup"></path>
                                    <path d="M18.6362833,31.7444494 L15.9057362,35.5930199 C15.6371726,35.9717556 15.0784883,35.9717556 14.8099246,35.5930199 L12.0793775,31.7444494 C11.7608137,31.2954545 12.0793775,30.6718673 12.6272833,30.6718673 L13.8820775,31.0961358 C14.8395654,31.4199911 15.8760954,31.4199911 16.8335833,31.0961358 L18.0883775,30.6718673 C18.6362833,30.6718673 18.9548472,31.2954545 18.6362833,31.7444494" id="Fill-29" fill="#343433" sketch:type="MSShapeGroup"></path>
                                    <path d="M4.45210914,29.974704 C4.22336594,29.889971 4.09103021,29.6514519 4.13653933,29.4126312 L4.61707969,28.0855484 L12.6632116,31.0674894 L11.7772808,33.2319522 L4.45210914,29.974704" id="Fill-30" fill="#A1855B" sketch:type="MSShapeGroup"></path>
                                    <path d="M4.97396699,28.8602077 L11.8721912,31.4169757 L11.4575193,32.4304557 L4.75989449,29.4512285 L4.97396699,28.8602077 M4.2601924,27.3102859 L3.5607891,29.242562 C3.42725577,29.787447 3.72186743,30.3468059 4.24522229,30.5406969 L12.0967428,34.0334487 L13.4536331,30.7180031 L4.2601924,27.3102859" id="Fill-31" fill="#A1855B" sketch:type="MSShapeGroup"></path>
                                    <path d="M18.1497549,31.0496985 L26.1470843,28.0852468 L26.6276246,29.4126312 C26.6731338,29.6514519 26.540798,29.889971 26.3120548,29.974704 L19.1584406,33.0449966 L18.1497549,31.0496985" id="Fill-32" fill="#A1855B" sketch:type="MSShapeGroup"></path>
                                    <path d="M25.790197,28.8602077 L26.0039701,29.4506254 L19.4383816,32.2691311 L18.9892784,31.3807907 L25.790197,28.8602077 M26.5039716,27.3102859 L17.3102315,30.7180031 L18.878799,33.8205606 L26.5189417,30.5406969 C27.0422965,30.3468059 27.3369082,29.787447 27.2033749,29.242562 L26.5039716,27.3102859" id="Fill-33" fill="#A1855B" sketch:type="MSShapeGroup"></path>
                                    <path d="M16.3183123,52.3086553 L15.3458543,53.3733974 L14.3973485,52.3086553 L14.3973485,33.9704266 L16.3183123,33.9704266 L16.3183123,52.3086553" id="Fill-36" fill="#343433" sketch:type="MSShapeGroup"></path>
                                    <path d="M21.4336809,20.5147532 C21.4336809,21.0077731 21.0366738,21.4076167 20.5468519,21.4076167 C20.0570301,21.4076167 19.6600229,21.0077731 19.6600229,20.5147532 C19.6600229,20.0214318 20.0570301,19.6215881 20.5468519,19.6215881 C21.0366738,19.6215881 21.4336809,20.0214318 21.4336809,20.5147532" id="Fill-37" fill="#1A1918" sketch:type="MSShapeGroup"></path>
                                    <path d="M11.5534118,20.5147532 C11.5534118,21.0077731 11.1567041,21.4076167 10.6668822,21.4076167 C10.1770604,21.4076167 9.78005323,21.0077731 9.78005323,20.5147532 C9.78005323,20.0214318 10.1770604,19.6215881 10.6668822,19.6215881 C11.1567041,19.6215881 11.5534118,20.0214318 11.5534118,20.5147532" id="Fill-38" fill="#1A1918" sketch:type="MSShapeGroup"></path>
                                    <path d="M20.9081464,43.3272504 C20.8252121,43.3272504 20.7431759,43.3121733 20.6656307,43.2823208 L18.0147246,42.2655238 C17.932389,42.233862 17.8767002,42.1527474 17.8767002,42.0634912 L17.8767002,38.0671655 C17.8767002,37.9480567 17.9728083,37.8509605 18.0913715,37.8509605 L23.7252207,37.8509605 C23.843784,37.8509605 23.939892,37.9480567 23.939892,38.0671655 L23.939892,42.0634912 C23.939892,42.1527474 23.8845026,42.233862 23.8018677,42.2655238 L21.1512609,43.2823208 C21.0734164,43.3121733 20.9913802,43.3272504 20.9081464,43.3272504" id="Fill-43" fill="#CAA670" sketch:type="MSShapeGroup"></path>
                                    <path d="M23.6404899,38.1528032 L23.6404899,42.0046906 L21.0443744,43.0006813 C21.0006617,43.017266 20.9548532,43.0260107 20.9084458,43.0260107 C20.8614397,43.0260107 20.8156312,43.017266 20.7722179,43.0006813 L18.1761023,42.0046906 L18.1761023,38.1528032 L23.6404899,38.1528032 M23.7252207,37.5497208 L18.0913715,37.5497208 C17.8075383,37.5497208 17.5772981,37.7813044 17.5772981,38.0671655 L17.5772981,42.0634912 C17.5772981,42.2784901 17.7090351,42.4708734 17.9084369,42.5474648 L20.5590436,43.5642618 C20.6716188,43.6073822 20.7898826,43.6290931 20.9084458,43.6290931 C21.0267097,43.6290931 21.1449735,43.6073822 21.2575487,43.5642618 L23.9081554,42.5474648 C24.1075572,42.4708734 24.2392941,42.2784901 24.2392941,42.0634912 L24.2392941,38.0671655 C24.2392941,37.7813044 24.0090539,37.5497208 23.7252207,37.5497208" id="Fill-44" fill="#A1855B" sketch:type="MSShapeGroup"></path>
                                    <path d="M9.70092725,43.3272504 C9.61769347,43.3272504 9.53595669,43.3121733 9.45841155,43.2823208 L6.80720601,42.2655238 C6.72487043,42.233862 6.66918164,42.1527474 6.66918164,42.0634912 L6.66918164,38.0671655 C6.66918164,37.9480567 6.76558912,37.8509605 6.88385295,37.8509605 L12.5180016,37.8509605 C12.6362654,37.8509605 12.7323735,37.9480567 12.7323735,38.0671655 L12.7323735,42.0634912 C12.7323735,42.1527474 12.6769841,42.233862 12.5946485,42.2655238 L9.94374235,43.2823208 C9.8658978,43.3121733 9.78416103,43.3272504 9.70092725,43.3272504" id="Fill-45" fill="#CAA670" sketch:type="MSShapeGroup"></path>
                                    <path d="M12.4329714,38.1528032 L12.4329714,42.0046906 L9.8371552,43.0006813 C9.7934425,43.017266 9.74763397,43.0260107 9.70092725,43.0260107 C9.65422052,43.0260107 9.608412,43.017266 9.5646993,43.0006813 L6.96858374,42.0046906 L6.96858374,38.1528032 L12.4329714,38.1528032 M12.5177021,37.5497208 L6.88385295,37.5497208 C6.60001976,37.5497208 6.36977955,37.7813044 6.36977955,38.0671655 L6.36977955,42.0634912 C6.36977955,42.2784901 6.50151647,42.4708734 6.70091827,42.5474648 L9.351525,43.5642618 C9.46410019,43.6073822 9.58236402,43.6290931 9.70092725,43.6290931 C9.81919108,43.6290931 9.9377543,43.6073822 10.0500301,43.5642618 L12.7006368,42.5474648 C12.9000386,42.4708734 13.0317755,42.2784901 13.0317755,42.0634912 L13.0317755,38.0671655 C13.0317755,37.7813044 12.8018347,37.5497208 12.5177021,37.5497208" id="Fill-46" fill="#A1855B" sketch:type="MSShapeGroup"></path>
                                    <path d="M15.3668125,30.2877038 C10.2506295,30.2877038 4.81348747,28.8683493 4.81348747,26.2386084 L4.81348747,14.9398593 L5.27217147,14.9398593 L5.27217147,22.8115926 C5.27217147,23.2949631 5.45899838,23.7493857 5.79762215,24.0910319 C6.13684472,24.4326781 6.58774427,24.6208398 7.06768583,24.6208398 L23.6593523,24.6196337 C24.6497744,24.6196337 25.4557648,23.8081863 25.4557648,22.8103864 L25.4557648,14.9398593 L25.9141494,14.9398593 L25.9141494,24.6205383 L25.9201375,24.6205383 L25.9201375,26.2386084 C25.9201375,28.8683493 20.4829955,30.2877038 15.3668125,30.2877038" id="Fill-47" fill="#804526" sketch:type="MSShapeGroup"></path>
                                    <path d="M25.3153453,24.5514854 L25.3153453,25.2215099 L25.3213333,25.2215099 L25.3213333,26.2386084 C25.3213333,28.1386196 20.8557511,29.6846214 15.3668125,29.6846214 C9.87817329,29.6846214 5.41259106,28.1386196 5.41259106,26.2386084 L5.41259106,24.5529931 C5.84283186,24.9685169 6.42666595,25.2242238 7.06828464,25.2242238 C9.18176402,25.2239223 21.3461717,25.2227161 23.6593523,25.2227161 C24.3012704,25.2227161 24.8851044,24.9670092 25.3153453,24.5514854 M26.5129536,14.3367769 L24.8566612,14.3367769 L24.8566612,22.8103864 C24.8566612,23.476491 24.3210309,24.0165513 23.6593523,24.0165513 C21.3461717,24.0165513 9.18176402,24.0177574 7.06828464,24.018059 L7.06798523,24.018059 C6.40660601,24.018059 5.87127506,23.4779987 5.87127506,22.8118941 L5.87127506,14.3367769 L4.21498268,14.3367769 L4.21498268,26.2386084 C4.21498268,29.3399598 9.79074788,30.8907862 15.3668125,30.8907862 C20.9428771,30.8907862 26.5189417,29.3399598 26.5189417,26.2386084 L26.5189417,24.018059 C26.5890018,24.0177574 26.5818161,24.0174559 26.5129536,24.0174559 L26.5129536,14.3367769" id="Fill-48" fill="#804526" sketch:type="MSShapeGroup"></path>
                                    <path d="M17.8869637,25.9180701 C18.0734912,27.2119835 17.1833688,28.4133237 15.8989338,28.6011838 C14.6141994,28.7893455 13.4213815,27.8928635 13.234854,26.5989502 C13.234854,26.5989502 14.3668933,26.7349453 15.5034237,26.5687961 C16.6402534,26.4023453 17.8869637,25.9180701 17.8869637,25.9180701" id="Fill-49" fill="#1A1918" sketch:type="MSShapeGroup"></path>
                                    <path id="Fill-50" fill="#CAA670" sketch:type="MSShapeGroup" d="M17.5772981,39.4412888 L24.2392941,39.4412888"></path>
                                    <path d="M17.5772981,39.1397476 L24.2392941,39.1397476 L24.2392941,39.74283 L17.5772981,39.74283 L17.5772981,39.1397476 Z" id="Fill-51" fill="#A1855B" sketch:type="MSShapeGroup"></path>
                                    <path id="Fill-52" fill="#CAA670" sketch:type="MSShapeGroup" d="M6.35750406,39.4412888 L13.0195001,39.4412888"></path>
                                    <path d="M6.35750406,39.1397476 L13.0195001,39.1397476 L13.0195001,39.74283 L6.35750406,39.74283 L6.35750406,39.1397476 Z" id="Fill-53" fill="#A1855B" sketch:type="MSShapeGroup"></path>
                                    <path d="M21.1961712,38.5984811 C21.1961712,38.7585995 21.0674283,38.8882622 20.9084458,38.8882622 C20.7491639,38.8882622 20.620421,38.7585995 20.620421,38.5984811 C20.620421,38.4380612 20.7491639,38.3083985 20.9084458,38.3083985 C21.0674283,38.3083985 21.1961712,38.4380612 21.1961712,38.5984811" id="Fill-60" fill="#A1855B" sketch:type="MSShapeGroup"></path>
                                    <path d="M9.97637717,38.5984811 C9.97637717,38.7585995 9.84733487,38.8882622 9.68835236,38.8882622 C9.52936985,38.8882622 9.40032755,38.7585995 9.40032755,38.5984811 C9.40032755,38.4380612 9.52936985,38.3083985 9.68835236,38.3083985 C9.84733487,38.3083985 9.97637717,38.4380612 9.97637717,38.5984811" id="Fill-61" fill="#A1855B" sketch:type="MSShapeGroup"></path>
                                    <path d="M4.6748643,14.9721242 C4.66827745,13.6944941 4.64881631,10.1534956 4.64881631,10.1534956 C4.64881631,6.25275854 6.75301423,2.64451642 10.1398507,0.738474425 C10.2395516,0.68238776 10.3407495,0.655249051 10.4488337,0.655249051 C10.9838652,0.655249051 11.6976398,1.30446728 12.388061,1.93227608 C13.3090219,2.76965602 14.2614199,3.63568238 15.3521418,3.63568238 C16.4979536,3.63568238 17.5132261,2.83750279 18.495265,2.06525575 C19.2680218,1.45795175 19.9973653,0.884420371 20.5856904,0.884420371 C20.7434753,0.884420371 20.8889847,0.927540764 21.0300031,1.01679696 C24.1764197,3.00395354 26.054569,6.42041546 26.054569,10.155908 L26.054569,14.9721242 L4.6748643,14.9721242" id="Fill-62" fill="#CAA670" sketch:type="MSShapeGroup"></path>
                                    <path d="M10.4488337,0.202937235 L10.4485343,1.10756087 C10.8111102,1.10756087 11.5485376,1.77849006 12.0871619,2.26819299 C13.0254881,3.12125307 14.0886649,4.08829573 15.3518424,4.08829573 C16.6521457,4.08829573 17.7781969,3.20297074 18.7716131,2.42167746 C19.418621,1.91297744 20.1521561,1.33673219 20.5856904,1.33673219 C20.6596427,1.33673219 20.7210201,1.35542774 20.7913796,1.40005584 C23.8060593,3.30398704 25.6057653,6.57721689 25.6057653,10.155908 L25.6057653,14.5201139 L5.12187162,14.5201139 C5.11408717,13.1173442 5.10001527,10.5397699 5.09791945,10.155908 C5.09791945,6.41649542 7.11379375,2.95932544 10.3590131,1.13349341 C10.3973365,1.11178244 10.4224863,1.10756087 10.4485343,1.10756087 L10.4488337,0.202937235 M10.4488337,0.202937235 C10.2697912,0.202937235 10.0940422,0.246359169 9.92068839,0.34375698 C6.50750451,2.26427295 4.19971317,5.9385526 4.19971317,10.155908 C4.19971317,10.155908 4.22845577,15.3574939 4.22845577,15.4247375 L26.5039716,15.4247375 L26.5039716,10.155908 C26.5039716,6.14209292 24.4132467,2.61979004 21.2686266,0.633538084 C21.0461708,0.493019879 20.8183258,0.431807014 20.5856904,0.431807014 C19.0252067,0.431807014 17.2434648,3.1836721 15.3518424,3.1836721 C13.5928551,3.1836721 11.9284788,0.203238776 10.4488337,0.202937235" id="Fill-63" fill="#A1855B" sketch:type="MSShapeGroup"></path>
                                    <g id="Group-67" stroke-width="1" fill="none" sketch:type="MSLayerGroup" transform="translate(5.089836, 0.904624)">
                                        <mask id="mask-6" sketch:name="Clip 65" fill="white">
                                            <use xlink:href="#path-5"></use>
                                        </mask>
                                        <g id="Clip-65"></g>
                                        <path d="M5.35869868,0.202635694 L5.35869868,0.202937235 C5.3326507,0.202937235 5.30750092,0.207158812 5.26917745,0.228869779 C5.04372768,0.355517087 4.82456534,0.490306008 4.61139105,0.632030377 C5.34283037,4.31234085 7.71529256,7.00811928 10.528774,7.00811928 C13.2581235,7.00811928 15.5725017,4.47064999 16.3760969,0.959202591 C16.158731,0.796671878 15.93388,0.641981237 15.701544,0.495432209 C15.6311845,0.45080411 15.5698071,0.432108555 15.4958548,0.432108555 L15.4850763,0.432108555 C15.4784895,0.432108555 15.4716032,0.432410096 15.4650164,0.433013178 C15.0278893,0.458945723 14.3138153,1.02041546 13.6817775,1.51705383 C13.1135123,1.9639379 12.5021332,2.44489614 11.839257,2.77478222 C11.3431477,3.02144293 10.8185953,3.1836721 10.2620068,3.1836721 C9.5365555,3.1836721 8.87727209,2.86494304 8.26948584,2.43162832 C7.81888569,2.11078847 7.39672873,1.72662497 6.99732634,1.36356935 C6.45870197,0.873866428 5.72127461,0.202937235 5.35869868,0.202937235 L5.35869868,0.202635694" id="Fill-64" fill="#BE9C6A" sketch:type="MSShapeGroup" mask="url(#mask-6)"></path>
                                        <path d="M15.4650164,0.433013178 C15.0278893,0.458945723 14.3135159,1.02041546 13.6817775,1.51735537 C13.1135123,1.9639379 12.5018338,2.44489614 11.839257,2.77478222 C12.5021332,2.44489614 13.1135123,1.9639379 13.6817775,1.51705383 C14.3138153,1.02041546 15.0278893,0.458945723 15.4650164,0.433013178 M15.4958548,0.432108555 L15.4850763,0.432108555 L15.4958548,0.432108555 C15.5698071,0.432108555 15.6311845,0.45080411 15.701544,0.495432209 C15.93388,0.641981237 16.158731,0.796671878 16.3760969,0.959202591 C16.158731,0.796671878 15.93388,0.641981237 15.7018434,0.495432209 C15.6314839,0.45080411 15.5698071,0.432108555 15.4958548,0.432108555 M5.35869868,0.202635694 C5.3326507,0.202937235 5.30720152,0.207460353 5.26887805,0.228869779 C5.04372768,0.355517087 4.82456534,0.490004467 4.61139105,0.632030377 C4.82456534,0.490306008 5.04372768,0.355517087 5.26917745,0.228869779 C5.30750092,0.207158812 5.3326507,0.202937235 5.35869868,0.202937235 L5.35869868,0.202937235 C5.72127461,0.202937235 6.45870197,0.873866428 6.99732634,1.36356935 C7.39672873,1.72662497 7.81888569,2.11078847 8.26948584,2.43162832 C7.81918509,2.11078847 7.39702813,1.72662497 6.99762574,1.36356935 C6.45900137,0.873866428 5.72127461,0.202635694 5.35869868,0.202635694" id="Fill-66" fill="#9B8058" sketch:type="MSShapeGroup" mask="url(#mask-6)"></path>
                                    </g>
                                    <path d="M1.47754933,16.2464373 L27.0958895,16.2464373 C28.2731385,16.2464373 29.368052,15.6394349 29.9976946,14.637715 L30.2955997,14.1642953 C30.649493,13.6013178 30.4833248,12.8562095 29.9243411,12.4997878 C29.3656568,12.1433661 28.6258342,12.3107215 28.2719409,12.8736989 L27.9740359,13.3471186 C27.7836161,13.6501675 27.452178,13.8341077 27.0958895,13.8341077 L1.47754933,13.8341077 C0.816170108,13.8341077 0.279940958,14.374168 0.279940958,15.0402725 C0.279940958,15.706377 0.816170108,16.2464373 1.47754933,16.2464373" id="Fill-68" fill="#A1855B" sketch:type="MSShapeGroup"></path>
                                    <path d="M19.6527535,35.2806232 L19.6527535,34.6350235 L20.388085,34.2315613 L21.4285073,34.2315613 L22.1638388,34.6350235 L22.1638388,35.2806232 C22.1638388,35.9048135 21.7710233,36.4602524 21.1853928,36.6640943 C21.1853928,36.6640943 20.9563502,36.7458119 20.9084458,36.7943601 C20.8464696,36.7322426 20.6311995,36.6640943 20.6311995,36.6640943 C20.045569,36.4602524 19.6527535,35.9048135 19.6527535,35.2806232" id="Fill-69" fill="#EBDC23" sketch:type="MSShapeGroup"></path>
                                    <path d="M6.81768508,35.2619276 L12.3536298,35.2619276 L12.3536298,36.4177351 L6.81768508,36.4177351 L6.81768508,35.2619276 Z" id="Fill-70" fill="#343433" sketch:type="MSShapeGroup"></path>
                                </g>
                            </g>
                        </g>
                        <g id="Imported-Layers-Copy-3" transform="translate(2.455097, 0.060308)">
                            <path d="M4.6748643,14.9721242 C4.66827745,13.6944941 4.64881631,10.1534956 4.64881631,10.1534956 C4.64881631,6.25275854 6.75301423,2.64451642 10.1398507,0.738474425 C10.2395516,0.68238776 10.3407495,0.655249051 10.4488337,0.655249051 C10.9838652,0.655249051 11.6976398,1.30446728 12.388061,1.93227608 C13.3090219,2.76965602 14.2614199,3.63568238 15.3521418,3.63568238 C16.4979536,3.63568238 17.5132261,2.83750279 18.495265,2.06525575 C19.2680218,1.45795175 19.9973653,0.884420371 20.5856904,0.884420371 C20.7434753,0.884420371 20.8889847,0.927540764 21.0300031,1.01679696 C24.1764197,3.00395354 26.054569,6.42041546 26.054569,10.155908 L26.054569,14.9721242 L4.6748643,14.9721242" id="Fill-62" fill="#CAA670" sketch:type="MSShapeGroup"></path>
                            <path d="M10.4488337,0.202937235 L10.4485343,1.10756087 C10.8111102,1.10756087 11.5485376,1.77849006 12.0871619,2.26819299 C13.0254881,3.12125307 14.0886649,4.08829573 15.3518424,4.08829573 C16.6521457,4.08829573 17.7781969,3.20297074 18.7716131,2.42167746 C19.418621,1.91297744 20.1521561,1.33673219 20.5856904,1.33673219 C20.6596427,1.33673219 20.7210201,1.35542774 20.7913796,1.40005584 C23.8060593,3.30398704 25.6057653,6.57721689 25.6057653,10.155908 L25.6057653,14.5201139 L5.12187162,14.5201139 C5.11408717,13.1173442 5.10001527,10.5397699 5.09791945,10.155908 C5.09791945,6.41649542 7.11379375,2.95932544 10.3590131,1.13349341 C10.3973365,1.11178244 10.4224863,1.10756087 10.4485343,1.10756087 L10.4488337,0.202937235 M10.4488337,0.202937235 C10.2697912,0.202937235 10.0940422,0.246359169 9.92068839,0.34375698 C6.50750451,2.26427295 4.19971317,5.9385526 4.19971317,10.155908 C4.19971317,10.155908 4.22845577,15.3574939 4.22845577,15.4247375 L26.5039716,15.4247375 L26.5039716,10.155908 C26.5039716,6.14209292 24.4132467,2.61979004 21.2686266,0.633538084 C21.0461708,0.493019879 20.8183258,0.431807014 20.5856904,0.431807014 C19.0252067,0.431807014 17.2434648,3.1836721 15.3518424,3.1836721 C13.5928551,3.1836721 11.9284788,0.203238776 10.4488337,0.202937235" id="Fill-63" fill="#A1855B" sketch:type="MSShapeGroup"></path>
                            <g id="Group-67" transform="translate(5.089836, 0.904624)">
                                <mask id="mask-8" sketch:name="Clip 65" fill="white">
                                    <use xlink:href="#path-7"></use>
                                </mask>
                                <g id="Clip-65"></g>
                                <path d="M5.35869868,0.202635694 L5.35869868,0.202937235 C5.3326507,0.202937235 5.30750092,0.207158812 5.26917745,0.228869779 C5.04372768,0.355517087 4.82456534,0.490306008 4.61139105,0.632030377 C5.34283037,4.31234085 7.71529256,7.00811928 10.528774,7.00811928 C13.2581235,7.00811928 15.5725017,4.47064999 16.3760969,0.959202591 C16.158731,0.796671878 15.93388,0.641981237 15.701544,0.495432209 C15.6311845,0.45080411 15.5698071,0.432108555 15.4958548,0.432108555 L15.4850763,0.432108555 C15.4784895,0.432108555 15.4716032,0.432410096 15.4650164,0.433013178 C15.0278893,0.458945723 14.3138153,1.02041546 13.6817775,1.51705383 C13.1135123,1.9639379 12.5021332,2.44489614 11.839257,2.77478222 C11.3431477,3.02144293 10.8185953,3.1836721 10.2620068,3.1836721 C9.5365555,3.1836721 8.87727209,2.86494304 8.26948584,2.43162832 C7.81888569,2.11078847 7.39672873,1.72662497 6.99732634,1.36356935 C6.45870197,0.873866428 5.72127461,0.202937235 5.35869868,0.202937235 L5.35869868,0.202635694" id="Fill-64" fill="#BE9C6A" sketch:type="MSShapeGroup" mask="url(#mask-8)"></path>
                                <path d="M15.4650164,0.433013178 C15.0278893,0.458945723 14.3135159,1.02041546 13.6817775,1.51735537 C13.1135123,1.9639379 12.5018338,2.44489614 11.839257,2.77478222 C12.5021332,2.44489614 13.1135123,1.9639379 13.6817775,1.51705383 C14.3138153,1.02041546 15.0278893,0.458945723 15.4650164,0.433013178 M15.4958548,0.432108555 L15.4850763,0.432108555 L15.4958548,0.432108555 C15.5698071,0.432108555 15.6311845,0.45080411 15.701544,0.495432209 C15.93388,0.641981237 16.158731,0.796671878 16.3760969,0.959202591 C16.158731,0.796671878 15.93388,0.641981237 15.7018434,0.495432209 C15.6314839,0.45080411 15.5698071,0.432108555 15.4958548,0.432108555 M5.35869868,0.202635694 C5.3326507,0.202937235 5.30720152,0.207460353 5.26887805,0.228869779 C5.04372768,0.355517087 4.82456534,0.490004467 4.61139105,0.632030377 C4.82456534,0.490306008 5.04372768,0.355517087 5.26917745,0.228869779 C5.30750092,0.207158812 5.3326507,0.202937235 5.35869868,0.202937235 L5.35869868,0.202937235 C5.72127461,0.202937235 6.45870197,0.873866428 6.99732634,1.36356935 C7.39672873,1.72662497 7.81888569,2.11078847 8.26948584,2.43162832 C7.81918509,2.11078847 7.39702813,1.72662497 6.99762574,1.36356935 C6.45900137,0.873866428 5.72127461,0.202635694 5.35869868,0.202635694" id="Fill-66" fill="#9B8058" sketch:type="MSShapeGroup" mask="url(#mask-8)"></path>
                            </g>
                            <path d="M1.47754933,16.2464373 L27.0958895,16.2464373 C28.2731385,16.2464373 29.368052,15.6394349 29.9976946,14.637715 L30.2955997,14.1642953 C30.649493,13.6013178 30.4833248,12.8562095 29.9243411,12.4997878 C29.3656568,12.1433661 28.6258342,12.3107215 28.2719409,12.8736989 L27.9740359,13.3471186 C27.7836161,13.6501675 27.452178,13.8341077 27.0958895,13.8341077 L1.47754933,13.8341077 C0.816170108,13.8341077 0.279940958,14.374168 0.279940958,15.0402725 C0.279940958,15.706377 0.816170108,16.2464373 1.47754933,16.2464373" id="Fill-68" fill="#A1855B" sketch:type="MSShapeGroup"></path>
                            <path d="M19.6527535,35.2806232 L19.6527535,34.6350235 L20.388085,34.2315613 L21.4285073,34.2315613 L22.1638388,34.6350235 L22.1638388,35.2806232 C22.1638388,35.9048135 21.7710233,36.4602524 21.1853928,36.6640943 C21.1853928,36.6640943 20.9563502,36.7458119 20.9084458,36.7943601 C20.8464696,36.7322426 20.6311995,36.6640943 20.6311995,36.6640943 C20.045569,36.4602524 19.6527535,35.9048135 19.6527535,35.2806232" id="Fill-69" fill="#EBDC23" sketch:type="MSShapeGroup"></path>
                            <path d="M6.81768508,35.2619276 L12.3536298,35.2619276 L12.3536298,36.4177351 L6.81768508,36.4177351 L6.81768508,35.2619276 Z" id="Fill-70" fill="#343433" sketch:type="MSShapeGroup"></path>
                        </g>
                    </g>
                </g>
            </g>
        </g>
    </g>
</svg>