<?xml version="1.0" encoding="utf-8"?>
<!-- Generator: Adobe Illustrator 17.1.0, SVG Export Plug-In . SVG Version: 6.00 Build 0)  -->
<!DOCTYPE svg PUBLIC "-//W3C//DTD SVG 1.1//EN" "http://www.w3.org/Graphics/SVG/1.1/DTD/svg11.dtd">
<svg version="1.1" id="Layer_1" xmlns="http://www.w3.org/2000/svg" xmlns:xlink="http://www.w3.org/1999/xlink" x="0px" y="0px"
	 viewBox="0 0 240 33" enable-background="new 0 0 240 33" xml:space="preserve">
<g>
	<g>
		<path fill="#872717" d="M92,28.5v-24h11.5v3.6h-7.4v6.2h5.5v3.6h-5.5v10.6H92z"/>
		<path fill="#872717" d="M107.5,28.5v-24h4.1v24H107.5z"/>
		<path fill="#872717" d="M116.4,28.5v-24h11v3.6h-6.9v6.2h5.3v3.6h-5.3v7h7.4v3.6H116.4z"/>
		<path fill="#872717" d="M131.6,28.5v-24h4.1v20.4h6.5v3.6H131.6z"/>
		<path fill="#872717" d="M145.2,4.5h6.1c2.1,0,3.8,0.6,4.9,1.8c1.1,1.2,1.6,3,1.6,5.5v9.5c0,2.5-0.5,4.3-1.6,5.5
			c-1.1,1.2-2.7,1.8-4.9,1.8h-6.1V4.5z M149.3,25.1h1.4c1.1,0,1.9-0.2,2.3-0.7c0.4-0.5,0.6-1.4,0.6-2.6V11.3c0-1.3-0.2-2.1-0.6-2.6
			c-0.4-0.5-1.2-0.7-2.3-0.7h-1.4V25.1z"/>
		<path fill="#872717" d="M174.2,16.3h6.7v12.1h-2l-0.8-1.8c-0.6,0.7-1.2,1.3-1.8,1.6c-0.6,0.3-1.4,0.5-2.3,0.5c-1.6,0-3-0.5-4-1.6
			c-1-1.1-1.5-2.6-1.5-4.5V10.3c0-0.8,0.1-1.6,0.4-2.4c0.3-0.8,0.6-1.4,1.1-2c0.5-0.6,1.1-1,1.9-1.3c0.8-0.3,1.6-0.5,2.7-0.5
			c1,0,1.9,0.2,2.7,0.5c0.8,0.4,1.4,0.8,1.9,1.4c0.5,0.6,0.9,1.3,1.2,2.1c0.3,0.8,0.4,1.6,0.4,2.5v1.5h-3.9c0-0.9,0-1.6-0.1-2.2
			c-0.1-0.6-0.2-1.1-0.4-1.4c-0.2-0.3-0.4-0.6-0.7-0.7c-0.3-0.1-0.6-0.2-1-0.2c-0.5,0-0.9,0.2-1.3,0.5c-0.4,0.4-0.5,1.1-0.5,2.1
			v12.3c0,0.8,0.1,1.4,0.4,1.8c0.3,0.5,0.8,0.7,1.5,0.7c0.8,0,1.4-0.3,1.8-0.8c0.3-0.5,0.5-1.4,0.5-2.6v-2.3h-2.6V16.3z"/>
		<path fill="#872717" d="M185.3,4.5h4.1v18.1c0,1.7,0.7,2.6,2.2,2.6c1.5,0,2.2-0.9,2.2-2.6V4.5h4.1v17.9c0,2.1-0.6,3.7-1.7,4.7
			c-1.1,1.1-2.7,1.6-4.6,1.6c-2,0-3.5-0.5-4.6-1.6c-1.1-1.1-1.7-2.7-1.7-4.7V4.5z"/>
		<path fill="#872717" d="M202.9,28.5v-24h4.1v24H202.9z"/>
		<path fill="#872717" d="M212,4.5h6.1c2.1,0,3.8,0.6,4.9,1.8c1.1,1.2,1.6,3,1.6,5.5v9.5c0,2.5-0.5,4.3-1.6,5.5
			c-1.1,1.2-2.7,1.8-4.9,1.8H212V4.5z M216.2,25.1h1.4c1.1,0,1.9-0.2,2.3-0.7c0.4-0.5,0.6-1.4,0.6-2.6V11.3c0-1.3-0.2-2.1-0.6-2.6
			c-0.4-0.5-1.2-0.7-2.3-0.7h-1.4V25.1z"/>
		<path fill="#872717" d="M228.5,28.5v-24h11v3.6h-6.9v6.2h5.3v3.6h-5.3v7h7.4v3.6H228.5z"/>
	</g>
	<g>
		<path fill="#872717" d="M19.6,8.7c-2-0.8-4.3-0.9-6.5,0l3.3,7.8l-7.8-3.3c-0.8,2-0.9,4.3,0,6.5c0.9,2.2,2.6,3.8,4.6,4.6
			s4.3,0.9,6.5,0c2.2-0.9,3.8-2.6,4.6-4.6c0.8-2,0.9-4.3,0-6.5C23.3,11.1,21.6,9.5,19.6,8.7z"/>
		<path fill="#872717" d="M60.7,8.7c-2-0.8-4.3-0.9-6.5,0l3.3,7.8l-7.8-3.3c-0.8,2-0.9,4.3,0,6.5c0.9,2.2,2.6,3.8,4.6,4.6
			c2,0.8,4.3,0.9,6.5,0c2.2-0.9,3.8-2.6,4.6-4.6c0.8-2,0.9-4.3,0-6.5C64.4,11.1,62.7,9.5,60.7,8.7z"/>
		<path fill="#872717" d="M57.4,0.2c-4.9,0-9.3,2.2-12.3,5.7c-0.3,0.4-0.9,0.6-1.4,0.6h-2.3c-0.6-1.9-2.4-3.3-4.6-3.3
			c-2.1,0-3.9,1.4-4.6,3.3h-2.3c-0.5,0-1-0.2-1.4-0.6c-3.1-3.6-7.8-5.8-13-5.6C7.4,0.5,0.6,7.1,0,15.3c-0.7,9.5,6.9,17.5,16.3,17.5
			c9,0,16.3-7.3,16.3-16.3V17c0-2.3,1.9-4.2,4.2-4.2s4.2,1.9,4.2,4.2v-0.5c0,9.4,8,17,17.5,16.3c8-0.6,14.6-7.1,15.1-15.1
			C74.4,8.1,66.8,0.2,57.4,0.2z M16.3,29.6c-7.2,0-13.1-5.9-13.1-13.1S9.1,3.4,16.3,3.4c7.2,0,13.1,5.9,13.1,13.1
			S23.6,29.6,16.3,29.6z M36.9,9.5c-0.8,0-1.5-0.7-1.5-1.5c0-0.8,0.7-1.5,1.5-1.5s1.5,0.7,1.5,1.5C38.4,8.8,37.7,9.5,36.9,9.5z
			 M57.4,29.6c-7.2,0-13.1-5.9-13.1-13.1S50.2,3.4,57.4,3.4c7.2,0,13.1,5.9,13.1,13.1S64.6,29.6,57.4,29.6z"/>
	</g>
</g>
</svg>
