<?xml version="1.0" encoding="utf-8"?>
<!-- Generator: Adobe Illustrator 17.1.0, SVG Export Plug-In . SVG Version: 6.00 Build 0)  -->
<!DOCTYPE svg PUBLIC "-//W3C//DTD SVG 1.1//EN" "http://www.w3.org/Graphics/SVG/1.1/DTD/svg11.dtd">
<svg version="1.1" id="Layer_1" xmlns="http://www.w3.org/2000/svg" xmlns:xlink="http://www.w3.org/1999/xlink" x="0px" y="0px"
	 viewBox="0 0 46 46" enable-background="new 0 0 46 46" xml:space="preserve">
<path fill="none" stroke="#F37960" stroke-width="1.5" stroke-linecap="round" stroke-linejoin="round" stroke-miterlimit="10" d="
	M15.5,36.7c-0.2,0.8-0.6,1.5-1.1,2.1c-0.1,0.1,0,0.3,0.2,0.4c0.9,0.1,1.8,0.1,2.8-0.2c1.6-0.5,2.9-1.7,3.6-3.1
	c0.4-0.8,1.2-1.4,2.2-1.4c0,0,0,0,0,0c9.7,0,17.6-6.2,17.6-13.8C40.6,13,32.7,6.8,23,6.8C13.3,6.8,5.4,13,5.4,20.7
	c0,4,2.2,7.6,5.6,10.1c1.1,0.8,2.3,1.5,3.7,2.1c0.3,0.1,1.8,0.6,2.1,0.7"/>
</svg>
