<?xml version="1.0" encoding="utf-8"?>
<!-- Generator: Adobe Illustrator 17.1.0, SVG Export Plug-In . SVG Version: 6.00 Build 0)  -->
<!DOCTYPE svg PUBLIC "-//W3C//DTD SVG 1.1//EN" "http://www.w3.org/Graphics/SVG/1.1/DTD/svg11.dtd">
<svg version="1.1" id="Layer_1" xmlns="http://www.w3.org/2000/svg" xmlns:xlink="http://www.w3.org/1999/xlink" x="0px" y="0px"
	 viewBox="0 0 46 46" enable-background="new 0 0 46 46" xml:space="preserve">
<circle fill="none" stroke="#F37960" stroke-width="1.5" stroke-linecap="round" stroke-linejoin="round" stroke-miterlimit="10" cx="23" cy="23" r="4.5"/>
<path fill="none" stroke="#F37960" stroke-width="1.5" stroke-linecap="round" stroke-linejoin="round" stroke-miterlimit="10" d="
	M14.9,39.6c0.7,0.3,1.4,0.6,2.1,0.9c0.6,0.2,1.3,0,1.7-0.5l1.9-2.1c0.3-0.4,0.8-0.6,1.3-0.5c0.3,0,0.6,0,1,0c0.3,0,0.7,0,1,0
	c0.5,0,1,0.2,1.3,0.5l1.9,2.1c0.4,0.5,1.1,0.7,1.7,0.5c0.7-0.3,1.4-0.5,2.1-0.9c0.6-0.3,0.9-0.9,0.9-1.6l-0.1-2.9
	c0-0.5,0.2-1,0.6-1.3c0.5-0.4,1-0.9,1.4-1.4c0.3-0.4,0.8-0.6,1.3-0.6L38,32c0.7,0,1.3-0.3,1.6-0.9c0.3-0.7,0.6-1.4,0.9-2.1
	c0.2-0.6,0-1.3-0.5-1.7l-2.1-1.9c-0.4-0.3-0.6-0.8-0.5-1.3c0-0.3,0-0.6,0-1s0-0.7,0-1c0-0.5,0.2-1,0.5-1.3l2.1-1.9
	c0.5-0.4,0.7-1.1,0.5-1.7c-0.3-0.7-0.5-1.4-0.9-2.1C39.3,14.3,38.7,14,38,14l-2.9,0.1c-0.5,0-1-0.2-1.3-0.6c-0.4-0.5-0.9-1-1.4-1.4
	c-0.4-0.3-0.6-0.8-0.6-1.3L32,8c0-0.7-0.3-1.3-0.9-1.6c-0.7-0.3-1.4-0.6-2.1-0.9c-0.6-0.2-1.3,0-1.7,0.5l-1.9,2.1
	C25,8.5,24.5,8.7,24,8.7c-0.3,0-0.6,0-1,0s-0.7,0-1,0c-0.5,0-1-0.2-1.3-0.5L18.8,6c-0.4-0.5-1.1-0.7-1.7-0.5
	c-0.7,0.3-1.4,0.5-2.1,0.9C14.3,6.7,14,7.3,14,8l0.1,2.9c0,0.5-0.2,1-0.6,1.3c-0.5,0.4-1,0.9-1.4,1.4c-0.3,0.4-0.8,0.6-1.3,0.6L8,14
	c-0.7,0-1.3,0.3-1.6,0.9c-0.3,0.7-0.6,1.4-0.9,2.1c-0.2,0.6,0,1.3,0.5,1.7l2.1,1.9C8.5,21,8.7,21.5,8.7,22c0,0.3,0,0.6,0,1
	s0,0.7,0,1c0,0.5-0.2,1-0.5,1.3L6,27.2c-0.5,0.4-0.7,1.1-0.5,1.7c0.3,0.7,0.5,1.4,0.9,2.1C6.7,31.7,7.3,32,8,32l2.9-0.1
	c0.5,0,1,0.2,1.3,0.6c0.4,0.5,1.9,1.8,2.4,2.3"/>
</svg>
