<?xml version="1.0" encoding="utf-8"?>
<!-- Generator: Adobe Illustrator 17.1.0, SVG Export Plug-In . SVG Version: 6.00 Build 0)  -->
<!DOCTYPE svg PUBLIC "-//W3C//DTD SVG 1.1//EN" "http://www.w3.org/Graphics/SVG/1.1/DTD/svg11.dtd">
<svg version="1.1" id="Layer_1" xmlns="http://www.w3.org/2000/svg" xmlns:xlink="http://www.w3.org/1999/xlink" x="0px" y="0px"
	 viewBox="0 0 46 46" enable-background="new 0 0 46 46" xml:space="preserve">
<path fill="none" stroke="#F37960" stroke-width="1.5" stroke-linecap="round" stroke-linejoin="round" stroke-miterlimit="10" d="
	M17.2,25.8l-2.3,2.8c-0.3,0.3-0.8,0.4-1.1,0.1l-0.1,0c-0.3-0.3-0.8-0.2-1.1,0.1L8.3,34l-4.4,5.2c-0.3,0.3-0.2,0.8,0.1,1.1l4.5,3.8
	c0.3,0.3,0.8,0.2,1.1-0.1l4.4-5.2l4.4-5.2c0.3-0.3,0.2-0.8-0.1-1.1l-0.1,0c-0.3-0.3-0.4-0.8-0.1-1.1l4.3-5.1
	c5.6,3.4,13.1,2.1,17.2-3.4c4-5.2,3.4-12.7-1.3-17.3C32.8,0,24,0.6,19.1,6.4c-4.2,5-4,12.3,0.1,17.1"/>
</svg>
