<?xml version="1.0" encoding="UTF-8" standalone="no"?>
<svg width="203px" height="34px" viewBox="0 0 203 34" version="1.1" xmlns="http://www.w3.org/2000/svg" xmlns:xlink="http://www.w3.org/1999/xlink" xmlns:sketch="http://www.bohemiancoding.com/sketch/ns">
    <!-- Generator: Sketch 3.3.1 (12002) - http://www.bohemiancoding.com/sketch -->
    <title>Line 4 + Nut</title>
    <desc>Created with Sketch.</desc>
    <defs></defs>
    <g id="Homepage-0.8" stroke="none" stroke-width="1" fill="none" fill-rule="evenodd" sketch:type="MSPage">
        <g id="Desktop-III-Copy-14" sketch:type="MSArtboardGroup" transform="translate(-604.000000, -1557.000000)">
            <g id="How-it-works" sketch:type="MSLayerGroup" transform="translate(0.000000, 1395.500000)">
                <g id="Line-4-+-Nut" transform="translate(605.000000, 163.000000)" sketch:type="MSShapeGroup">
                    <path d="M0.5,16 L200.167221,16" id="Line-4" stroke="#979797" stroke-width="2" stroke-linecap="square" opacity="0.6"></path>
                    <g id="Nut" transform="translate(89.000000, 0.000000)">
                        <path d="M13.0355356,4.70884576 L12.5267341,4.4317025 C12.4543071,4.39227627 12.3995131,4.32651065 12.3735581,4.24790666 L12.0166966,3.16666696 C11.9982397,3.11059225 11.995191,3.05054178 12.0080449,2.99289333 L12.5660375,0.488498998 C12.6092959,0.294349629 12.4707865,0.106909347 12.2734457,0.0924144066 L11.0252959,0.000889213414 C10.9932434,-0.00151280523 10.9611086,0.000972041643 10.9298801,0.00809526935 L9.60633708,0.310501134 C9.45785768,0.344460708 9.3528839,0.4776485 9.35411985,0.630715068 L9.37801498,3.63249292 C9.37883895,3.73793326 9.32882397,3.8372443 9.24387266,3.89903416 L7.96334082,4.8298578 C7.94653184,4.84211638 7.93170037,4.85545172 7.91818727,4.86944969 C3.34317603,5.82429352 0,8.77190171 0,11.4673808 C0,15.9401051 5.5,12.2226914 11,12.2226914 C16.5,12.2226914 22,16.6855592 22,11.4673808 C22,8.83741884 17.9975655,5.46763516 13.0355356,4.70884576 L13.0355356,4.70884576 Z" id="Fill-1" fill="#FAFAFA"></path>
                        <path d="M13.0355356,4.70884576 L12.5267341,4.4317025 C12.4543071,4.39227627 12.3995131,4.32651065 12.3735581,4.24790666 L12.0166966,3.16666696 C11.9982397,3.11059225 11.995191,3.05054178 12.0080449,2.99289333 L12.5660375,0.488498998 C12.6092959,0.294349629 12.4707865,0.106909347 12.2734457,0.0924144066 L11.0252959,0.000889213414 C10.9932434,-0.00151280523 10.9611086,0.000972041643 10.9298801,0.00809526935 L9.60633708,0.310501134 C9.45785768,0.344460708 9.3528839,0.4776485 9.35411985,0.630715068 L9.37801498,3.63249292 C9.37883895,3.73793326 9.32882397,3.8372443 9.24387266,3.89903416 L7.96334082,4.8298578 C7.94653184,4.84211638 7.93170037,4.85545172 7.91818727,4.86944969 C3.34317603,5.82429352 0,8.77190171 0,11.4673808 C0,15.9401051 5.5,12.2226914 11,12.2226914 C16.5,12.2226914 22,16.6855592 22,11.4673808 C22,8.83741884 17.9975655,5.46763516 13.0355356,4.70884576 L13.0355356,4.70884576 Z" id="Stroke-2" stroke="#C1C1C1" stroke-width="2"></path>
                        <path d="M20.4547622,14.5661906 C18.7810006,9.81771755 3.57390937,9.77883851 2.36269049,14.644261 C1.32830616,18.7992433 2.08446738,28.8057547 10.2846064,29.7888946 L11.0100618,30.6439992 C11.2005906,30.8686076 11.4934436,31 11.8036484,31 L12.1948278,31 C12.5964694,31 12.9691914,30.8082592 13.1787731,30.4937918 L13.9303412,29.6158126 C21.2093074,27.9298053 21.7346225,18.1972428 20.4547622,14.5661906 L20.4547622,14.5661906 Z" id="Fill-3" fill="#FAFAFA"></path>
                        <path d="M20.4547622,14.5661906 C18.7810006,9.81771755 3.57390937,9.77883851 2.36269049,14.644261 C1.32830616,18.7992433 2.08446738,28.8057547 10.2846064,29.7888946 L11.0100618,30.6439992 C11.2005906,30.8686076 11.4934436,31 11.8036484,31 L12.1948278,31 C12.5964694,31 12.9691914,30.8082592 13.1787731,30.4937918 L13.9303412,29.6158126 C21.2093074,27.9298053 21.7346225,18.1972428 20.4547622,14.5661906 L20.4547622,14.5661906 Z" id="Stroke-4" stroke="#C1C1C1" stroke-width="2"></path>
                    </g>
                </g>
            </g>
        </g>
    </g>
</svg>