<?xml version="1.0" encoding="UTF-8" standalone="no"?>
<svg width="1425px" height="83px" viewBox="0 0 1425 83" version="1.1" xmlns="http://www.w3.org/2000/svg" xmlns:xlink="http://www.w3.org/1999/xlink" xmlns:sketch="http://www.bohemiancoding.com/sketch/ns">
    <!-- Generator: Sketch 3.3.1 (12002) - http://www.bohemiancoding.com/sketch -->
    <title>Treeline</title>
    <desc>Created with Sketch.</desc>
    <defs></defs>
    <g id="Homepage-0.8" stroke="none" stroke-width="1" fill="none" fill-rule="evenodd" sketch:type="MSPage">
        <g id="Desktop-III-Copy-13" sketch:type="MSArtboardGroup" transform="translate(0.000000, -4170.000000)" fill="#CA844A">
            <g id="Rectangle-241-+-Field-Guide-will-lea-+-YOU-CAN-BUILD-BETTER" sketch:type="MSLayerGroup" transform="translate(-17.000000, 4138.500000)">
                <g id="Treeline" transform="translate(0.000000, 32.000000)" sketch:type="MSShapeGroup">
                    <polygon id="Triangle-10" points="634 35 640 55 628 55 "></polygon>
                    <polygon id="Triangle-15" points="706 22 716 55 696 55 "></polygon>
                    <polygon id="Triangle-18" points="742 22 752 55 732 55 "></polygon>
                    <polygon id="Triangle-19" points="760 12 770 45 750 45 "></polygon>
                    <polygon id="Triangle-20" points="778 22 788 55 768 55 "></polygon>
                    <polygon id="Triangle-22" points="798.5 17 811 58 786 58 "></polygon>
                    <polygon id="Triangle-21" points="819 22 829 55 809 55 "></polygon>
                    <polygon id="Triangle-22" points="833.5 34 840 55 827 55 "></polygon>
                    <polygon id="Triangle-10" points="592 35 598 55 586 55 "></polygon>
                    <polygon id="Triangle-12" points="607.5 17 619 55 596 55 "></polygon>
                    <polygon id="Triangle-22" points="644.5 34 651 55 638 55 "></polygon>
                    <polygon id="Triangle-10" points="844 35 850 55 838 55 "></polygon>
                    <polygon id="Triangle-11" points="860 15 872 55 848 55 "></polygon>
                    <polygon id="Triangle-12" points="881.5 26 893 64 870 64 "></polygon>
                    <polygon id="Triangle-13" points="906.5 31 922 82 891 82 "></polygon>
                    <polygon id="Triangle-14" points="930 12 940 45 920 45 "></polygon>
                    <polygon id="Triangle-15" points="948 22 958 55 938 55 "></polygon>
                    <polygon id="Triangle-16" points="975.5 1 995 65 956 65 "></polygon>
                    <polygon id="Triangle-17" points="1003 22 1013 55 993 55 "></polygon>
                    <polygon id="Triangle-18" points="1021 12 1031 45 1011 45 "></polygon>
                    <polygon id="Triangle-19" points="1039 22 1049 55 1029 55 "></polygon>
                    <polygon id="Triangle-21" points="1088 22 1098 55 1078 55 "></polygon>
                    <polygon id="Triangle-22" points="1120.5 34 1127 55 1114 55 "></polygon>
                    <polygon id="Triangle-10" points="1053 35 1059 55 1047 55 "></polygon>
                    <polygon id="Triangle-12" points="1068.5 14 1080 52 1057 52 "></polygon>
                    <polygon id="Triangle-14" points="1106 26 1116 59 1096 59 "></polygon>
                    <polygon id="Triangle-15" points="1135 22 1145 55 1125 55 "></polygon>
                    <polygon id="Triangle-17" points="1153 22 1163 55 1143 55 "></polygon>
                    <polygon id="Triangle-18" points="1171 12 1181 45 1161 45 "></polygon>
                    <polygon id="Triangle-19" points="1189 22 1199 55 1179 55 "></polygon>
                    <polygon id="Triangle-20" points="1236 22 1246 55 1226 55 "></polygon>
                    <polygon id="Triangle-22" points="1256.5 5 1269 46 1244 46 "></polygon>
                    <polygon id="Triangle-21" points="1277 24 1287 57 1267 57 "></polygon>
                    <polygon id="Triangle-22" points="1291.5 34 1298 55 1285 55 "></polygon>
                    <polygon id="Triangle-10" points="125 35 131 55 119 55 "></polygon>
                    <polygon id="Triangle-12" points="162.5 24 174 62 151 62 "></polygon>
                    <polygon id="Triangle-18" points="247 22 257 55 237 55 "></polygon>
                    <polygon id="Triangle-20" points="288.5 4 304 55 273 55 "></polygon>
                    <polygon id="Triangle-20" points="312 22 322 55 302 55 "></polygon>
                    <polygon id="Triangle-22" points="332.5 14 345 55 320 55 "></polygon>
                    <polygon id="Triangle-21" points="353 22 363 55 343 55 "></polygon>
                    <polygon id="Triangle-22" points="367.5 34 374 55 361 55 "></polygon>
                    <polygon id="Triangle-11" points="1308 20 1320 60 1296 60 "></polygon>
                    <polygon id="Triangle-12" points="1329.5 11 1341 49 1318 49 "></polygon>
                    <polygon id="Triangle-13" points="1354.5 0 1370 51 1339 51 "></polygon>
                    <polygon id="Triangle-14" points="1378 14 1388 47 1368 47 "></polygon>
                    <polygon id="Triangle-15" points="1396 22 1406 55 1386 55 "></polygon>
                    <polygon id="Triangle-17" points="1414 12 1424 45 1404 45 "></polygon>
                    <polygon id="Triangle-18" points="1432 29 1442 62 1422 62 "></polygon>
                    <polygon id="Triangle-11" points="384 15 396 55 372 55 "></polygon>
                    <polygon id="Triangle-12" points="405.5 17 417 55 394 55 "></polygon>
                    <polygon id="Triangle-14" points="454 22 464 55 444 55 "></polygon>
                    <polygon id="Triangle-15" points="472 22 482 55 462 55 "></polygon>
                    <polygon id="Triangle-17" points="490 30 500 63 480 63 "></polygon>
                    <polygon id="Triangle-20" points="544 22 554 55 534 55 "></polygon>
                    <polygon id="Triangle-22" points="564.5 14 577 55 552 55 "></polygon>
                    <polygon id="Triangle-22" points="581.5 34 588 55 575 55 "></polygon>
                    <polygon id="Triangle-14" points="10 22 20 55 0 55 "></polygon>
                    <polygon id="Triangle-15" points="28 32 38 65 18 65 "></polygon>
                    <polygon id="Triangle-17" points="46 40 56 73 36 73 "></polygon>
                    <polygon id="Triangle-18" points="64 29 74 62 54 62 "></polygon>
                    <polygon id="Triangle-21" points="100 31 110 64 90 64 "></polygon>
                    <polygon id="Triangle-22" points="114.5 34 121 55 108 55 "></polygon>
                </g>
            </g>
        </g>
    </g>
</svg>