<?xml version="1.0" encoding="utf-8"?>
<!-- Generator: Adobe Illustrator 17.1.0, SVG Export Plug-In . SVG Version: 6.00 Build 0)  -->
<!DOCTYPE svg PUBLIC "-//W3C//DTD SVG 1.1//EN" "http://www.w3.org/Graphics/SVG/1.1/DTD/svg11.dtd">
<svg version="1.1" id="Layer_1" xmlns="http://www.w3.org/2000/svg" xmlns:xlink="http://www.w3.org/1999/xlink" x="0px" y="0px"
	 viewBox="0 0 40 40" enable-background="new 0 0 40 40" xml:space="preserve">
<path fill="#88291B" d="M40,7.1c-1.5,0.7-3.1,1.1-4.7,1.3c1.7-1.1,3-2.7,3.6-4.7c-1.6,1-3.3,1.7-5.2,2.1c-1.5-1.7-3.6-2.7-6-2.7
	c-4.5,0-8.2,3.8-8.2,8.5c0,0.7,0.1,1.3,0.2,1.9C12.9,13.2,6.8,9.9,2.8,4.7C2.1,6,1.7,7.4,1.7,9c0,2.9,1.4,5.6,3.7,7.1
	C4,16,2.7,15.6,1.6,15c0,0,0,0.1,0,0.1c0,4.1,2.8,7.6,6.6,8.3c-0.7,0.2-1.4,0.3-2.2,0.3c-0.5,0-1-0.1-1.5-0.2c1,3.4,4.1,5.8,7.7,5.9
	C9.3,31.8,5.8,33.1,2,33.1c-0.7,0-1.3,0-2-0.1c3.6,2.4,7.9,3.8,12.6,3.8c15.1,0,23.3-13,23.3-24.2c0-0.4,0-0.7,0-1.1
	C37.5,10.3,38.9,8.9,40,7.1z"/>
</svg>
